<svg width="143" height="143" viewBox="0 0 143 143" fill="none" xmlns="http://www.w3.org/2000/svg">
<path d="M65.7843 127.63C65.7843 127.531 59.9088 127.498 52.7054 127.564C43.9088 127.663 39.2614 127.597 38.5975 127.366C37.9668 127.135 37.5021 127.135 37.4025 127.333C36.9378 128.026 32.0581 127.366 31.527 126.507C31.3942 126.309 31.2614 125.615 31.2614 124.988C31.2614 123.303 30.8631 122.94 28.9046 122.742C26.3818 122.544 25.9502 122.048 25.917 119.406C25.8838 117.821 25.8174 117.458 25.6183 118.052C25.3527 118.845 25.3527 118.845 25.3195 117.821C25.2863 117.26 25.4523 116.731 25.6847 116.665C25.917 116.566 25.8838 116.434 25.5187 116.302C25.2199 116.203 24.9544 116.203 24.9544 116.368C24.9544 116.5 24.5228 116.566 23.9585 116.467C23.4274 116.401 23.0623 116.203 23.1618 116.038C23.2614 115.872 22.6639 115.74 21.834 115.74C20.3735 115.74 20.3071 115.707 19.9751 114.518C19.7427 113.792 19.6432 111.645 19.7095 109.531L19.8091 105.832H17.0871H14.332L14.2988 90.9044C14.2656 82.6807 14.1992 75.0846 14.1328 74.0608L14 72.1452H16.6556C18.7801 72.1452 19.3112 72.0462 19.3112 71.6498C19.3112 71.3526 19.61 71.1544 20.0083 71.1544C20.7054 71.1544 20.7054 71.2535 20.639 76.3727C20.6058 79.2129 20.5726 86.8091 20.6058 93.2162L20.639 104.842H23.2946H25.9502V105.965C25.9502 106.856 25.8174 107.12 25.2863 107.22C24.888 107.286 24.5892 107.418 24.6224 107.583C24.6224 107.715 24.6224 108.64 24.6224 109.63C24.6224 111.348 24.6556 111.447 25.4523 111.447C26.249 111.447 26.2822 111.546 26.2822 113.429V115.377L29.0374 115.476L31.7594 115.575L31.8589 118.482L31.9585 121.355H66.4482H100.971L101.004 120.298C101.037 119.704 101.004 118.349 100.971 117.326L100.905 115.41H103.062C104.257 115.41 105.353 115.575 105.452 115.74C105.552 115.939 105.884 116.071 106.149 116.071C106.515 116.071 106.614 115.476 106.614 113.23V110.357L109.436 110.522L112.257 110.654V96.3538C112.257 83.8697 112.324 82.0532 112.755 82.0532C113.021 82.0532 113.253 82.2844 113.253 82.5486C113.253 82.945 113.784 83.044 115.909 83.044H118.564V97.2455V111.447H115.909H113.253V114.122V116.797L110.133 116.665C108.407 116.632 107.145 116.665 107.345 116.764C107.51 116.863 107.61 118.085 107.544 119.571L107.444 122.181L105.154 122.28C102.398 122.412 101.967 122.742 101.967 124.889C101.967 126.441 101.934 126.474 100.639 126.903C99.776 127.168 96.9213 127.3 92.4399 127.333C88.6225 127.333 85.8341 127.465 86.1993 127.597C86.5644 127.762 82.1163 127.861 76.3403 127.861C70.5312 127.861 65.7843 127.762 65.7843 127.63Z" fill="#151E24"/>
<path d="M91.1121 127.729C91.4109 127.663 91.942 127.663 92.274 127.729C92.5727 127.828 92.3072 127.894 91.6764 127.894C91.0457 127.894 90.7802 127.828 91.1121 127.729Z" fill="#151E24"/>
<path d="M95.4274 127.729C95.7262 127.663 96.2573 127.663 96.5893 127.729C96.888 127.828 96.6225 127.894 95.9918 127.894C95.3611 127.894 95.0955 127.828 95.4274 127.729Z" fill="#151E24"/>
<path d="M98.0831 127.729C98.3818 127.663 98.913 127.663 99.2449 127.729C99.5437 127.828 99.2781 127.894 98.6474 127.894C98.0167 127.894 97.7511 127.828 98.0831 127.729Z" fill="#151E24"/>
<path d="M39.5602 104.115V101.209H36.5726H33.5851V94.6364V88.0971L35.8423 87.8989C37.0706 87.7668 38.7635 87.6678 39.5934 87.6678C41.054 87.6678 41.1536 87.7338 41.3527 88.6916C41.4523 89.253 41.5519 91.8621 41.5519 94.4712V99.2271L47.4606 99.2601C50.6805 99.2601 54.5312 99.3262 55.9917 99.3922C57.4523 99.4583 60.7718 99.3922 63.3942 99.2931L68.1743 99.128L67.942 96.3868L67.7096 93.6125H71.7262H75.7428V97.4106V101.209H72.9212H70.0996V103.983V106.757L68.8714 106.955C68.1743 107.054 61.303 107.12 53.6017 107.054L39.5602 106.988V104.115Z" fill="#151E24"/>
<path d="M106.415 82.3174C106.515 81.3597 106.614 79.7744 106.614 78.8496C106.614 77.4956 106.714 77.0992 107.145 77.0992C107.411 77.0992 107.544 77.2644 107.444 77.4295C107.311 77.6277 108.174 77.7598 109.768 77.7598H112.291L112.191 79.4772C112.091 81.0294 111.992 81.2276 111.029 81.6899C110.199 82.0863 109.934 82.4496 109.934 83.1431C109.934 84.0018 109.867 84.0348 108.075 84.0348H106.183L106.415 82.3174Z" fill="#151E24"/>
<path d="M29.2698 76.0754C29.2698 75.0846 29.1702 73.4993 29.0706 72.5746C28.8714 70.9563 28.9046 70.8242 29.5685 70.8242C30.0332 70.8242 30.2656 71.0223 30.2656 71.4847C30.2656 72.1122 30.498 72.1452 38.0664 72.1452H45.8673V69.1729V66.2005H43.0457H40.2241L40.1577 60.8501L40.0582 55.4668L37.137 55.3677L34.249 55.2686L34.3154 49.4229L34.415 43.5772L37.2366 43.5442L40.0582 43.4781L40.0913 38.2599L40.1577 33.0087L42.8465 32.9096L45.5353 32.8105V30.0363V27.2621L48.2905 27.163L51.0125 27.0639L50.9793 24.3557L50.9461 21.6476L53.8009 21.5485L56.6557 21.4494L56.7553 18.7412L56.8549 16H74.2159C89.7512 16 91.6433 16.0661 91.8093 16.5284C91.9088 16.8257 92.0084 18.0807 92.0084 19.3357V21.6145H94.83H97.6516V24.4218V27.229H100.307H102.963V32.6784V38.1278H115.876C125.867 38.1278 128.888 38.2269 129.087 38.5572C129.22 38.7553 129.419 42.6195 129.452 47.1441L129.585 55.3017H126.73H123.876V58.2741V61.2465H126.531H129.187V63.8886V66.5307H126.531H123.876V68.9417C123.876 70.3618 123.71 71.5177 123.477 71.7489C123.179 72.0462 120.921 72.1452 115.345 72.1452H107.61V74.4241V76.6699L106.382 76.9011C104.357 77.2313 102.465 77.1323 101.834 76.6699C101.535 76.4387 101.17 75.613 101.071 74.8534L100.872 73.4663H98.7802C96.8881 73.4663 96.6557 73.4003 96.6557 72.8058C96.6557 72.4755 96.2906 71.815 95.8591 71.3856C95.2283 70.7581 94.9296 70.659 94.2989 70.9233C93.1703 71.3196 88.6889 70.8902 88.4897 70.3288C88.2242 69.7013 87.3611 70.0976 87.3611 70.8572C87.3611 71.3526 87.1288 71.4847 86.2325 71.4847H85.0707V68.7105C85.0707 66.4647 85.1702 65.9032 85.6018 65.7381C85.9005 65.606 93.9005 65.5399 103.428 65.5399C112.955 65.5399 121.22 65.5399 121.818 65.5399C122.88 65.5399 122.88 65.5399 122.88 63.8886V62.2373H112.091H101.303V58.2741V54.3109H112.091H122.88V49.522V44.7332H92.0748C92.0748 44.7332 59.4109 44.6341 57.22 44.502C53.5685 44.3368 53.1702 44.2378 53.1702 43.6763C53.1702 43.1479 52.8382 43.0818 49.1868 43.0818C45.4357 43.0818 45.2034 43.1149 45.2034 43.7424C45.2034 44.3368 44.971 44.4029 43.2117 44.4029C41.4523 44.4029 41.22 44.4689 41.22 45.0634C41.22 45.5588 40.9876 45.724 40.3901 45.724C39.5602 45.724 39.5602 45.757 39.5602 48.6303C39.5602 52.1311 39.7594 52.9898 40.5893 52.9898C40.9876 52.9898 41.22 53.221 41.22 53.6503C41.22 54.2448 41.4523 54.3109 43.2449 54.3109H45.2698L45.137 56.0613C45.1038 56.986 45.1702 59.3639 45.3362 61.3455C45.6349 65.3087 45.4689 65.1106 48.6889 65.2757L50.3486 65.3748L50.6142 66.9601C50.747 67.9178 50.7138 69.4371 50.5146 70.7581C50.2822 71.9801 50.0499 73.8296 49.9503 74.8865C49.8175 76.6038 49.7179 76.769 49.0208 76.769C48.5893 76.769 48.1245 76.9341 47.9918 77.1323C47.693 77.6607 39.5934 77.2974 37.5685 76.6699C36.2075 76.2736 36.0084 76.2736 35.444 76.835C35.0789 77.1653 34.3486 77.4295 33.7843 77.4295C33.22 77.4295 31.9586 77.5286 31.0291 77.6277L29.2698 77.8588V76.0754ZM46.3984 65.7051C45.7013 65.1766 45.3362 65.2757 45.7013 65.8372C45.8009 66.0353 46.166 66.2005 46.4648 66.2005C46.9627 66.1674 46.9627 66.1344 46.3984 65.7051ZM91.3445 37.137C91.3445 36.9719 91.942 36.8068 92.6723 36.8068C93.4026 36.8068 94.0001 36.9719 94.0001 37.137C94.0001 37.3352 94.2325 37.4673 94.4981 37.4673C94.7636 37.4673 94.996 37.3352 94.996 37.1701C94.996 37.0049 95.3279 36.8068 95.7595 36.7407C96.4566 36.6416 96.4898 36.5095 96.5893 32.2821L96.6889 27.8896H93.635H90.6142L90.8466 25.0163L91.079 22.1099L86.5644 22.209C82.747 22.3081 82.0499 22.242 82.0499 21.8127C82.0499 21.3833 81.1536 21.3503 75.6765 21.4494C71.4607 21.5154 69.2366 21.6806 69.1702 21.9118C69.0042 22.4072 66.7802 22.3741 66.747 21.8787C66.747 21.5485 66.6806 21.5485 66.5478 21.8787C66.4482 22.176 65.1868 22.2751 61.9669 22.2751H57.5188L57.7179 25.0823L57.9171 27.8896H55.0291H52.1743V29.706C52.1743 31.1262 52.0416 31.6546 51.5104 32.084C51.1453 32.4142 50.8465 32.9096 50.8465 33.2399C50.8465 33.7353 50.5478 33.8344 48.7221 33.8344C46.3984 33.8344 46.2656 33.9335 46.4648 35.6839L46.5976 36.8068H66.1495C78.9628 36.8068 85.7014 36.9058 85.7014 37.137C85.7014 37.3352 86.8632 37.4673 88.5229 37.4673C90.1827 37.4673 91.3445 37.3352 91.3445 37.137Z" fill="#151E24"/>
<path d="M29.2698 76.0754C29.2698 75.0846 29.1702 73.4993 29.0706 72.5746C28.8714 70.9563 28.9046 70.8242 29.5685 70.8242C30.0332 70.8242 30.2656 71.0223 30.2656 71.4847C30.2656 72.1122 30.498 72.1452 38.0664 72.1452H45.8673V69.1729V66.2005H43.0457H40.2241L40.1577 60.8501L40.0582 55.4668L37.137 55.3677L34.249 55.2686L34.3154 49.4229L34.415 43.5772L37.2366 43.5442L40.0582 43.4781L40.0913 38.2599L40.1577 33.0087L42.8465 32.9096L45.5353 32.8105V30.0363V27.2621L48.2905 27.163L51.0125 27.0639L50.9793 24.3557L50.9461 21.6476L53.8009 21.5485L56.6557 21.4494L56.7553 18.7412L56.8549 16H74.2159C89.7512 16 91.6433 16.0661 91.8093 16.5284C91.9088 16.8257 92.0084 18.0807 92.0084 19.3357V21.6145H94.83H97.6516V24.4218V27.229H100.307H102.963V32.6784V38.1278H115.876C125.867 38.1278 128.888 38.2269 129.087 38.5572C129.22 38.7553 129.419 42.6195 129.452 47.1441L129.585 55.3017H126.73H123.876V58.2741V61.2465H126.531H129.187V63.8886V66.5307H126.531H123.876V68.9417C123.876 70.3618 123.71 71.5177 123.477 71.7489C123.179 72.0462 120.921 72.1452 115.345 72.1452H107.61V74.4241V76.6699L106.382 76.9011C104.357 77.2313 102.465 77.1323 101.834 76.6699C101.535 76.4387 101.17 75.613 101.071 74.8534L100.872 73.4663H98.7802C96.8881 73.4663 96.6557 73.4003 96.6557 72.8058C96.6557 72.4755 96.2906 71.815 95.8591 71.3856C95.2283 70.7581 94.9296 70.659 94.2989 70.9233C93.1703 71.3196 88.6889 70.8902 88.4897 70.3288C88.2242 69.7013 87.3611 70.0976 87.3611 70.8572C87.3611 71.3526 87.1288 71.4847 86.2325 71.4847H85.0707V68.7105C85.0707 66.4647 85.1702 65.9032 85.6018 65.7381C85.9005 65.606 93.9005 65.5399 103.428 65.5399C112.955 65.5399 121.22 65.5399 121.818 65.5399C122.88 65.5399 122.88 65.5399 122.88 63.8886V62.2373H112.091H101.303V58.2741V54.3109H112.091H122.88V49.522V44.7332H92.0748C92.0748 44.7332 59.4109 44.6341 57.22 44.502C53.5685 44.3368 53.1702 44.2378 53.1702 43.6763C53.1702 43.1479 52.8382 43.0818 49.1868 43.0818C45.4357 43.0818 45.2034 43.1149 45.2034 43.7424C45.2034 44.3368 44.971 44.4029 43.2117 44.4029C41.4523 44.4029 41.22 44.4689 41.22 45.0634C41.22 45.5588 40.9876 45.724 40.3901 45.724C39.5602 45.724 39.5602 45.757 39.5602 48.6303C39.5602 52.1311 39.7594 52.9898 40.5893 52.9898C40.9876 52.9898 41.22 53.221 41.22 53.6503C41.22 54.2448 41.4523 54.3109 43.2449 54.3109H45.2698L45.137 56.0613C45.1038 56.986 45.1702 59.3639 45.3362 61.3455C45.6349 65.3087 45.4689 65.1106 48.6889 65.2757L50.3486 65.3748L50.6142 66.9601C50.747 67.9178 50.7138 69.4371 50.5146 70.7581C50.2822 71.9801 50.0499 73.8296 49.9503 74.8865C49.8175 76.6038 49.7179 76.769 49.0208 76.769C48.5893 76.769 48.1245 76.9341 47.9918 77.1323C47.693 77.6607 39.5934 77.2974 37.5685 76.6699C36.2075 76.2736 36.0084 76.2736 35.444 76.835C35.0789 77.1653 34.3486 77.4295 33.7843 77.4295C33.22 77.4295 31.9586 77.5286 31.0291 77.6277L29.2698 77.8588V76.0754ZM46.3984 65.7051C45.7013 65.1766 45.3362 65.2757 45.7013 65.8372C45.8009 66.0353 46.166 66.2005 46.4648 66.2005C46.9627 66.1674 46.9627 66.1344 46.3984 65.7051ZM91.3445 37.137C91.3445 36.9719 91.942 36.8068 92.6723 36.8068C93.4026 36.8068 94.0001 36.9719 94.0001 37.137C94.0001 37.3352 94.2325 37.4673 94.4981 37.4673C94.7636 37.4673 94.996 37.3352 94.996 37.1701C94.996 37.0049 95.3279 36.8068 95.7595 36.7407C96.4566 36.6416 96.4898 36.5095 96.5893 32.2821L96.6889 27.8896H93.635H90.6142L90.8466 25.0163L91.079 22.1099L86.5644 22.209C82.747 22.3081 82.0499 22.242 82.0499 21.8127C82.0499 21.3833 81.1536 21.3503 75.6765 21.4494C71.4607 21.5154 69.2366 21.6806 69.1702 21.9118C69.0042 22.4072 66.7802 22.3741 66.747 21.8787C66.747 21.5485 66.6806 21.5485 66.5478 21.8787C66.4482 22.176 65.1868 22.2751 61.9669 22.2751H57.5188L57.7179 25.0823L57.9171 27.8896H55.0291H52.1743V29.706C52.1743 31.1262 52.0416 31.6546 51.5104 32.084C51.1453 32.4142 50.8465 32.9096 50.8465 33.2399C50.8465 33.7353 50.5478 33.8344 48.7221 33.8344C46.3984 33.8344 46.2656 33.9335 46.4648 35.6839L46.5976 36.8068H66.1495C78.9628 36.8068 85.7014 36.9058 85.7014 37.137C85.7014 37.3352 86.8632 37.4673 88.5229 37.4673C90.1827 37.4673 91.3445 37.3352 91.3445 37.137Z" fill="#151E24"/>
<path d="M46.3984 65.7051C45.7013 65.1766 45.3362 65.2757 45.7013 65.8372C45.8009 66.0353 46.166 66.2005 46.4648 66.2005C46.9627 66.1674 46.9627 66.1344 46.3984 65.7051ZM91.3445 37.137C91.3445 36.9719 91.942 36.8068 92.6723 36.8068C93.4026 36.8068 94.0001 36.9719 94.0001 37.137C94.0001 37.3352 94.2325 37.4673 94.4981 37.4673C94.7636 37.4673 94.996 37.3352 94.996 37.1701C94.996 37.0049 95.3279 36.8068 95.7595 36.7407C96.4566 36.6416 96.4898 36.5095 96.5893 32.2821L96.6889 27.8896H93.635H90.6142L90.8466 25.0163L91.079 22.1099L86.5644 22.209C82.747 22.3081 82.0499 22.242 82.0499 21.8127C82.0499 21.3833 81.1536 21.3503 75.6765 21.4494C71.4607 21.5154 69.2366 21.6806 69.1702 21.9118C69.0042 22.4072 66.7802 22.3741 66.747 21.8787C66.747 21.5485 66.6806 21.5485 66.5478 21.8787C66.4482 22.176 65.1868 22.2751 61.9669 22.2751H57.5188L57.7179 25.0823L57.9171 27.8896H55.0291H52.1743V29.706C52.1743 31.1262 52.0416 31.6546 51.5104 32.084C51.1453 32.4142 50.8465 32.9096 50.8465 33.2399C50.8465 33.7353 50.5478 33.8344 48.7221 33.8344C46.3984 33.8344 46.2656 33.9335 46.4648 35.6839L46.5976 36.8068H66.1495C78.9628 36.8068 85.7014 36.9058 85.7014 37.137C85.7014 37.3352 86.8632 37.4673 88.5229 37.4673C90.1827 37.4673 91.3445 37.3352 91.3445 37.137Z" fill="#151E24"/>
<path d="M46.3984 65.7051C45.7013 65.1766 45.3362 65.2757 45.7013 65.8372C45.8009 66.0353 46.166 66.2005 46.4648 66.2005C46.9627 66.1674 46.9627 66.1344 46.3984 65.7051ZM91.3445 37.137C91.3445 36.9719 91.942 36.8068 92.6723 36.8068C93.4026 36.8068 94.0001 36.9719 94.0001 37.137C94.0001 37.3352 94.2325 37.4673 94.4981 37.4673C94.7636 37.4673 94.996 37.3352 94.996 37.1701C94.996 37.0049 95.3279 36.8068 95.7595 36.7407C96.4566 36.6416 96.4898 36.5095 96.5893 32.2821L96.6889 27.8896H93.635H90.6142L90.8466 25.0163L91.079 22.1099L86.5644 22.209C82.747 22.3081 82.0499 22.242 82.0499 21.8127C82.0499 21.3833 81.1536 21.3503 75.6765 21.4494C71.4607 21.5154 69.2366 21.6806 69.1702 21.9118C69.0042 22.4072 66.7802 22.3741 66.747 21.8787C66.747 21.5485 66.6806 21.5485 66.5478 21.8787C66.4482 22.176 65.1868 22.2751 61.9669 22.2751H57.5188L57.7179 25.0823L57.9171 27.8896H55.0291H52.1743V29.706C52.1743 31.1262 52.0416 31.6546 51.5104 32.084C51.1453 32.4142 50.8465 32.9096 50.8465 33.2399C50.8465 33.7353 50.5478 33.8344 48.7221 33.8344C46.3984 33.8344 46.2656 33.9335 46.4648 35.6839L46.5976 36.8068H66.1495C78.9628 36.8068 85.7014 36.9058 85.7014 37.137C85.7014 37.3352 86.8632 37.4673 88.5229 37.4673C90.1827 37.4673 91.3445 37.3352 91.3445 37.137Z" fill="#151E24"/>
<path d="M67.5436 127.564C67.6099 127.333 67.9419 127.168 68.2407 127.234C68.5726 127.3 69.0373 127.168 69.2697 126.969C69.5353 126.738 70.2987 126.573 70.9958 126.606C71.6929 126.606 75.2116 126.672 78.8299 126.705C83.5768 126.771 85.4689 126.903 85.6349 127.201C85.834 127.498 88.0249 127.63 94 127.729C98.4814 127.762 94.332 127.828 84.7718 127.894C70.9958 127.96 67.4108 127.861 67.5436 127.564Z" fill="#252D31"/>
<path d="M32.8547 127.234C30.6971 126.672 31.4937 126.342 34.5145 126.54C37.668 126.738 37.7344 126.771 37.4025 127.267C37.1369 127.696 34.5477 127.696 32.8547 127.234Z" fill="#252D31"/>
<path d="M42.8796 127.3C42.8796 127.135 43.1784 126.969 43.5435 126.969C43.9087 126.969 44.2074 127.135 44.2074 127.3C44.2074 127.498 43.9087 127.63 43.5435 127.63C43.1784 127.63 42.8796 127.498 42.8796 127.3Z" fill="#252D31"/>
<path d="M44.5394 127.3C44.5394 126.738 45.9004 126.606 52.639 126.705C57.3859 126.771 59.278 126.903 59.3776 127.201C59.4772 127.498 57.6515 127.597 52.0415 127.63C47.195 127.63 44.5394 127.531 44.5394 127.3Z" fill="#252D31"/>
<path d="M60.8049 127.3C60.8049 127.135 61.1037 126.969 61.4688 126.969C61.834 126.969 62.1327 127.135 62.1327 127.3C62.1327 127.498 61.834 127.63 61.4688 127.63C61.1037 127.63 60.8049 127.498 60.8049 127.3Z" fill="#252D31"/>
<path d="M91.6764 126.969C91.6764 126.507 92.971 126.276 94.332 126.441C94.9627 126.54 95.5934 126.606 95.7594 126.606C95.8922 126.639 95.9917 126.804 95.9917 126.969C95.9917 127.168 95.0623 127.3 93.8341 127.3C92.639 127.3 91.6764 127.168 91.6764 126.969Z" fill="#252D31"/>
<path d="M98.6473 127.002C98.6473 126.474 99.6764 125.648 100.34 125.648C100.739 125.648 100.971 125.417 100.971 124.988C100.971 124.625 101.203 124.327 101.469 124.327C101.834 124.327 101.967 124.724 101.967 125.813V127.3H100.307C99.4108 127.3 98.6473 127.168 98.6473 127.002Z" fill="#252D31"/>
<path d="M100.772 121.817C100.871 121.52 100.971 120.926 100.971 120.496C100.971 119.935 101.17 119.704 101.602 119.704C102.133 119.704 102.232 119.902 102.166 120.628C102.1 121.124 102.033 121.718 102 121.949C102 122.148 101.668 122.346 101.27 122.346C100.772 122.346 100.639 122.214 100.772 121.817Z" fill="#252D31"/>
<path d="M102.299 121.883C102.299 121.553 102.797 121.421 104.058 121.421C104.988 121.421 106.149 121.355 106.614 121.289C107.178 121.223 107.444 121.355 107.544 121.784C107.643 122.28 107.344 122.346 104.988 122.346C102.929 122.346 102.299 122.247 102.299 121.883Z" fill="#252D31"/>
<path d="M106.448 120.364C106.548 120.199 106.88 120.034 107.145 120.034C107.411 120.034 107.61 120.199 107.61 120.364C107.61 120.562 107.311 120.694 106.913 120.694C106.548 120.694 106.349 120.562 106.448 120.364Z" fill="#252D31"/>
<path d="M106.548 118.515C106.481 118.019 106.216 117.524 105.95 117.392C105.685 117.26 105.12 116.995 104.722 116.797C103.793 116.335 101.967 116.269 101.967 116.731C101.967 116.896 102.232 116.962 102.564 116.863C103.096 116.698 103.096 116.698 102.531 117.061C102.232 117.26 102.033 117.557 102.133 117.755C102.266 117.92 102.1 118.052 101.834 118.052C101.469 118.052 101.303 117.722 101.303 116.929C101.303 115.872 101.369 115.806 102.83 115.608C105.585 115.245 107.61 115.344 107.61 115.872C107.61 116.137 107.411 116.434 107.212 116.5C106.88 116.632 106.88 116.698 107.212 116.698C107.809 116.731 107.743 119.373 107.145 119.373C106.88 119.373 106.614 118.977 106.548 118.515Z" fill="#252D31"/>
<path d="M30.8962 117.887C30.863 117.623 30.8299 117.194 30.7967 116.995C30.7967 116.731 30.2655 116.533 29.6016 116.5L28.4398 116.467L29.6016 116.731C30.5643 116.929 30.3319 116.995 28.3734 117.028C26.4813 117.061 25.917 117.194 25.6514 117.656C25.3527 118.151 25.3195 118.151 25.2863 117.491C25.2863 117.094 25.4191 116.731 25.585 116.665C25.751 116.632 25.6846 116.368 25.4191 116.137C25.0539 115.806 24.9543 115.806 24.9543 116.203C24.9543 116.5 24.722 116.599 24.2904 116.5C23.4274 116.269 23.5933 115.608 24.556 115.476C25.0207 115.41 25.2863 115.113 25.2863 114.75C25.2863 114.32 25.1203 114.188 24.6888 114.32C24.1576 114.452 24.0249 114.155 23.6929 112.24C23.4937 111.018 23.3942 109.895 23.4606 109.763C23.5601 109.63 23.4937 108.838 23.3278 108.012C23.1618 107.087 23.1618 106.493 23.361 106.493C23.5269 106.493 23.5933 106.361 23.4937 106.196C23.2282 105.799 21.6016 105.931 20.7386 106.427C20.307 106.658 19.9751 106.79 19.9419 106.757C19.9419 106.691 19.8423 106.262 19.7759 105.766L19.6099 104.842H21.9004C23.1618 104.842 24.6888 104.941 25.2531 105.04L26.2821 105.271V110.291V115.311L28.805 115.509C30.1991 115.641 31.4606 115.806 31.6265 115.939C32.1577 116.236 31.9917 118.382 31.4274 118.382C31.1618 118.382 30.8962 118.151 30.8962 117.887Z" fill="#252D31"/>
<path d="M111.56 112.107C111.029 111.81 109.934 111.513 109.037 111.48C108.805 111.447 108.606 111.216 108.606 110.952C108.606 110.555 109.037 110.456 110.432 110.456C111.826 110.456 112.257 110.357 112.257 109.961C112.257 109.234 113.154 109.366 113.353 110.093C113.817 111.876 112.888 112.9 111.56 112.107Z" fill="#252D31"/>
<path d="M66.6805 106.922C66.249 106.526 66.4482 106.163 67.0789 106.163C67.6432 106.163 67.6764 106.064 67.3444 105.172C67.0457 104.346 67.0457 104.082 67.5436 103.62C68.0747 103.091 68.1079 103.124 68.1079 104.445C68.1079 105.469 68.2407 105.832 68.6058 105.832C68.8714 105.832 69.1038 105.601 69.1038 105.337C69.1038 105.073 69.3361 104.842 69.6017 104.842C69.9336 104.842 70.0996 105.205 70.0996 105.998V107.153H68.5063C67.61 107.153 66.7801 107.054 66.6805 106.922Z" fill="#252D31"/>
<path d="M49.8506 106.328C49.8506 106.064 50.083 105.832 50.3485 105.832C50.6141 105.832 50.8464 105.601 50.8464 105.337C50.8464 105.073 50.6805 104.842 50.4481 104.842C50.1493 104.842 50.1493 104.743 50.4149 104.478C50.946 103.95 51.4771 104.379 51.278 105.172C51.1452 105.634 51.278 105.832 51.6431 105.832C51.9419 105.832 52.1742 106.064 52.1742 106.328C52.1742 106.658 51.8091 106.823 51.0124 106.823C50.2157 106.823 49.8506 106.658 49.8506 106.328Z" fill="#252D31"/>
<path d="M33.917 99.5574C33.917 97.6418 34.5477 97.2785 34.6141 99.161C34.6473 100.251 34.6805 100.284 34.9129 99.5574C35.1784 98.7647 35.1784 98.7647 35.2116 99.4913C35.2448 100.317 35.4772 100.383 36.7718 99.8876C37.4025 99.6234 37.7344 99.6234 37.9004 99.8876C38.0332 100.086 38.6307 100.218 39.2614 100.152C40.2573 100.053 40.39 99.9206 40.4564 99.062C40.4896 98.4014 40.4564 98.3023 40.3236 98.8308C40.1577 99.5904 39.9585 99.6895 39.0954 99.3592C38.6971 99.1941 38.6307 99.0289 38.8963 98.7317C39.0954 98.5005 39.2282 98.1702 39.195 98.0381C39.1618 97.873 39.1618 97.4767 39.195 97.1794C39.2282 96.5189 40.0913 96.3868 40.2905 96.9813C40.39 97.2125 40.4564 96.3538 40.4232 95.0988C40.4232 93.8107 40.39 93.0511 40.2905 93.3814C40.2241 93.6786 39.9917 93.9428 39.7593 93.9428C39.4606 93.9428 39.2282 93.1832 39.0954 91.631C38.9627 90.376 38.6971 89.3191 38.5311 89.3191C38.3319 89.3191 38.2988 89.154 38.4315 88.9558C38.5975 88.6916 38.3319 88.6586 37.5353 88.8567C36.9046 88.9888 35.9751 89.1209 35.4772 89.154C34.7801 89.154 34.5809 89.3191 34.6141 89.8145C34.7137 91.1686 34.5809 91.631 34.083 91.631C33.5519 91.631 33.4523 90.9044 33.7842 88.9228L34.0166 87.6678H37.0373C41.9834 87.6678 41.5519 87.0733 41.5519 94.141C41.5519 99.3262 41.4855 100.218 41.0539 100.218C40.7884 100.218 40.556 100.449 40.556 100.713C40.556 101.308 39.361 101.374 39.1286 100.812C38.9958 100.482 38.9295 100.482 38.9295 100.812C38.8963 101.077 38.166 101.209 36.4066 101.209H33.917V99.5574Z" fill="#252D31"/>
<path d="M44.1411 100.317C43.8091 100.251 43.5436 99.9536 43.5436 99.6894C43.5436 99.3592 43.9751 99.2271 45.0374 99.2271C46.0996 99.2271 46.5311 99.3592 46.5311 99.6894C46.5311 100.053 45.4357 100.614 44.8714 100.515C44.7718 100.482 44.4398 100.416 44.1411 100.317Z" fill="#252D31"/>
<path d="M47.4606 100.317C47.1287 100.251 46.8631 99.9536 46.8631 99.6894C46.8631 99.3592 47.2946 99.2271 48.3569 99.2271C49.4191 99.2271 49.8507 99.3592 49.8507 99.6894C49.8507 100.053 48.7552 100.614 48.1909 100.515C48.0913 100.482 47.7594 100.416 47.4606 100.317Z" fill="#252D31"/>
<path d="M50.7801 100.284C50.4481 100.218 50.1826 99.9536 50.1826 99.6894C50.1826 99.2931 51.3444 99.2271 57.3195 99.2271C63.2614 99.2271 64.4564 99.2931 64.4564 99.6894C64.4564 99.9536 64.0581 100.251 63.5602 100.35C62.5975 100.581 51.8091 100.515 50.7801 100.284Z" fill="#252D31"/>
<path d="M72.0912 94.2731C72.0912 94.1079 72.6224 93.9428 73.2531 93.9428C73.8838 93.9428 74.4149 94.1079 74.4149 94.2731C74.4149 94.4712 73.8838 94.6033 73.2531 94.6033C72.6224 94.6033 72.0912 94.4712 72.0912 94.2731Z" fill="#252D31"/>
<path d="M18.4149 89.9796C18.4149 88.9888 18.4813 88.5595 18.5477 89.0879C18.6141 89.5833 18.6141 90.3759 18.5477 90.9044C18.4813 91.3998 18.4149 90.9704 18.4149 89.9796Z" fill="#252D31"/>
<path d="M19.6431 88.4934C19.6431 88.2292 19.3444 87.998 18.9792 87.998C18.4149 87.998 18.3153 87.7668 18.3153 86.677C18.3153 85.7522 18.4481 85.3559 18.78 85.3559C19.0456 85.3559 19.3112 85.6201 19.3775 85.9504C19.4771 86.2476 19.5435 85.8513 19.5767 85.0587C19.6431 81.8551 20.639 83.2422 20.639 86.6109C20.639 88.4934 20.5394 88.9888 20.141 88.9888C19.8755 88.9888 19.6431 88.7576 19.6431 88.4934Z" fill="#252D31"/>
<path d="M107.809 83.5394C107.676 83.2092 107.842 83.044 108.274 83.044C109.037 83.044 109.17 82.4495 108.44 82.1853C107.643 81.8551 107.876 81.2276 108.772 81.1285C109.237 81.0955 110 80.8312 110.465 80.534C111.162 80.0716 111.261 79.8074 111.095 78.8827C110.929 77.7928 110.963 77.7598 112.091 77.7598H113.253V80.8973V84.0348H110.631C108.606 84.0348 107.975 83.9357 107.809 83.5394Z" fill="#252D31"/>
<path d="M106.946 81.5909C106.946 80.7652 107.112 80.0717 107.278 80.0717C107.477 80.0717 107.61 80.6661 107.61 81.3597C107.61 82.0863 107.477 82.7798 107.278 82.8789C107.079 83.011 106.946 82.4826 106.946 81.5909Z" fill="#252D31"/>
<path d="M29.2697 76.9341C29.2697 75.547 29.3692 75.1176 29.7676 75.1176C30.0331 75.1176 30.2655 75.3488 30.2655 75.613C30.2655 76.3727 32.8879 76.6038 34.2821 75.9763C34.9792 75.6791 35.4107 73.2351 34.8796 72.6076C34.5809 72.2113 34.7468 72.1452 35.9419 72.1452C37.3029 72.1452 37.3361 72.1783 36.6058 72.5746C36.1742 72.7727 35.8423 73.07 35.8755 73.2351C35.8755 73.3672 35.9087 73.6975 35.9087 73.9617C35.9087 74.5892 37.2365 75.4479 38.4647 75.613C38.9626 75.6791 39.3941 75.7451 39.3941 75.8112C39.3941 75.8442 39.9253 75.9103 40.556 75.9763C45.8008 76.4387 46.8298 76.4387 47.029 76.1415C47.1286 75.9433 47.5933 75.7782 48.0581 75.7782C48.7884 75.7782 48.8547 75.6461 48.8547 74.0938C48.8547 73.1691 48.9875 72.1783 49.1535 71.848C49.4854 71.2535 49.585 69.1728 49.3859 67.3564C49.3527 66.7619 49.0871 66.3326 48.7552 66.2665C48.4232 66.2005 48.1908 65.9362 48.1908 65.672C48.1908 65.3087 48.6888 65.2097 50.3153 65.2097H52.4066L52.3734 71.9801L52.3402 78.7506H40.8215H29.2697V76.9341Z" fill="#252D31"/>
<path d="M100.971 76.1084V73.4663H93.0374C88.6557 73.4663 85.0042 73.3342 84.9046 73.2021C84.805 73.037 84.8382 71.2535 84.9378 69.2389L85.137 65.5399H86.8963C87.8922 65.5399 88.6888 65.7051 88.6888 65.8702C88.6888 66.0683 88.9544 66.2335 89.2864 66.2335C89.5851 66.2665 89.3196 66.3986 88.6888 66.4977C88.0581 66.6298 87.5602 66.894 87.5934 67.1252C87.6598 67.3234 87.3942 67.6536 87.0291 67.8518C86 68.3802 86.5312 69.0738 87.8922 68.9086C88.6888 68.8096 89.1868 68.9417 89.4523 69.3049C90.0166 70.0646 93.3694 70.1967 94.1992 69.4701C95.1287 68.7105 96.3237 68.7435 96.3237 69.5031C96.3237 70.3618 97.4855 71.0554 99.3113 71.2865C100.141 71.3856 100.871 71.4517 100.938 71.4517C101.004 71.4847 100.971 71.7159 100.838 71.9801C100.739 72.2443 100.772 72.4425 100.905 72.4425C101.668 72.3104 101.967 72.5746 101.967 73.2681C101.967 75.514 103.162 76.4387 105.32 75.8772C107.212 75.3818 107.577 75.613 107.544 77.2974L107.51 78.7506H104.257H100.971V76.1084Z" fill="#252D31"/>
<path d="M19.5767 74.2259C19.5767 73.8956 19.5435 73.4333 19.5435 73.2351C19.5767 73.0039 19.278 72.8058 18.946 72.8058C18.6141 72.8058 18.3153 72.6406 18.3153 72.4425C18.3153 72.2443 18.5809 72.1452 18.9128 72.2113C19.4107 72.3434 19.4771 72.1122 19.3775 69.4371L19.278 66.5307H24.7883H30.2987L30.2323 69.8334L30.1991 73.136H25.4191H20.639V73.9617C20.639 74.9195 19.6763 75.1507 19.5767 74.2259Z" fill="#252D31"/>
<path d="M121.087 71.6499C120.988 71.3196 121.12 71.1545 121.486 71.1545C122.415 71.1545 122.88 70.4609 122.88 69.1729C122.88 67.8518 122.415 67.1913 121.452 67.1913C120.257 67.1913 118.232 66.4317 118.232 65.9693C118.232 65.639 118.83 65.5399 120.556 65.5399C122.415 65.5399 122.88 65.4409 122.88 65.0445C122.88 64.351 123.743 64.417 124.008 65.1436C124.108 65.4409 124.307 65.9032 124.407 66.1674C124.539 66.4647 124.473 66.5307 124.241 66.3986C123.975 66.2335 123.876 67.0261 123.876 69.1398V72.1453H122.581C121.751 72.1453 121.22 71.9801 121.087 71.6499Z" fill="#252D31"/>
<path d="M95.7593 67.2903C96.0581 67.2243 96.5892 67.2243 96.9212 67.2903C97.2199 67.3894 96.9544 67.4555 96.3237 67.4555C95.693 67.4555 95.4274 67.3894 95.7593 67.2903Z" fill="#252D31"/>
<path d="M110.266 66.828C110.664 66.5637 110.531 66.4977 109.768 66.5637C108.008 66.6298 107.61 66.5307 107.61 66.0353C107.61 65.639 108.174 65.5399 110.764 65.5399C113.12 65.5399 113.917 65.639 113.917 65.9693C113.917 66.4977 112.091 67.1912 110.73 67.1912C109.967 67.1912 109.867 67.1252 110.266 66.828Z" fill="#252D31"/>
<path d="M95.3278 66.5307C94.6971 66.3986 94.4315 66.2665 94.7635 66.2335C95.0623 66.2335 95.3278 66.0684 95.3278 65.8702C95.3278 65.3087 97.8838 65.4739 98.1162 66.0353C98.2158 66.3326 98.1162 66.5307 97.8506 66.5307C97.5851 66.5307 97.1867 66.5968 96.9212 66.6628C96.6888 66.7289 95.9585 66.6628 95.3278 66.5307Z" fill="#252D31"/>
<path d="M44.0415 65.639C44.3734 64.8464 44.3734 62.2703 44.0415 59.0997C43.8755 57.6466 43.7427 56.3255 43.7095 56.1273C43.7095 55.9622 43.8423 55.698 44.0415 55.5659C44.2074 55.4338 43.9751 55.3017 43.4772 55.3017C42.4481 55.3017 42.2489 54.8393 43.0788 54.509C43.3776 54.4099 44.3402 54.3109 45.2697 54.3109H46.9626L46.7303 56.3255C46.6307 57.4484 46.5311 59.9914 46.5311 62.0061C46.5311 65.0775 46.4647 65.5729 46.0332 65.4078C45.7344 65.3087 45.5353 65.4078 45.5353 65.705C45.5353 66.0023 45.2033 66.2004 44.6722 66.2004C43.9751 66.2004 43.8423 66.1014 44.0415 65.639Z" fill="#252D31"/>
<path d="M38.3983 54.3769C38.5975 53.6173 38.6307 48.6633 38.4647 44.7332C38.3983 43.313 39.3942 42.9167 39.8589 44.1387L40.1909 44.8983V44.1717C40.2241 43.7424 40.39 43.4121 40.556 43.4121C40.7552 43.4121 40.888 43.2139 40.888 42.9497C40.888 42.6525 41.1535 42.5534 41.7178 42.6855C42.1826 42.7516 42.5477 42.9827 42.5477 43.2139C42.5477 43.4121 42.7137 43.346 42.8797 43.0818C43.0788 42.7516 43.2116 42.7185 43.2116 43.0158C43.2116 43.2139 43.444 43.4121 43.7095 43.4121C44.3071 43.4121 44.3734 42.5534 43.8091 42.3222C43.5768 42.2231 46.7967 42.124 50.9793 42.124C55.1618 42.091 58.5145 42.1571 58.4481 42.2231C58.3486 42.3222 57.5519 42.4213 56.6556 42.4543C54.7635 42.5534 54.166 42.6855 54.166 43.1148C54.166 43.28 54.7967 43.4451 55.5934 43.4451C56.556 43.5112 56.722 43.5442 56.0913 43.6433C55.5602 43.7093 55.1618 43.9405 55.1618 44.1056C55.1618 44.2708 52.2739 44.4029 48.1577 44.4029H41.1867L41.2863 49.8192L41.3859 55.2356L39.7925 55.2686C38.1992 55.2686 38.166 55.2356 38.3983 54.3769Z" fill="#252D31"/>
<path d="M128.324 54.7733C128.423 54.476 128.523 53.8155 128.523 53.2871C128.523 52.6595 128.689 52.3293 129.021 52.3293C129.386 52.3293 129.519 52.7256 129.519 53.8155C129.519 55.1035 129.419 55.3017 128.822 55.3017C128.324 55.3017 128.191 55.1696 128.324 54.7733Z" fill="#252D31"/>
<path d="M128.523 51.3385C128.523 51.1733 128.755 51.0082 129.021 51.0082C129.286 51.0082 129.519 51.1733 129.519 51.3385C129.519 51.5366 129.286 51.6687 129.021 51.6687C128.755 51.6687 128.523 51.5366 128.523 51.3385Z" fill="#252D31"/>
<path d="M128.523 43.346C128.49 41.2984 127.992 39.0856 127.494 38.7884C127.262 38.6232 121.784 38.4911 115.278 38.4911C108.805 38.4581 103.427 38.359 103.328 38.293C103.262 38.1939 109.104 38.1278 116.34 38.1278H129.519V41.4305C129.519 44.1387 129.419 44.7332 129.021 44.7332C128.656 44.7332 128.523 44.3368 128.523 43.346Z" fill="#252D31"/>
<path d="M78.2324 38.1278C78.332 37.9627 78.0664 37.8306 77.6681 37.8636C76.2075 37.9297 75.7428 37.7976 75.7428 37.3352C75.7428 36.7077 97.0208 36.7407 97.22 37.4012C97.3196 37.6324 97.0872 37.7976 96.6557 37.7976C96.2573 37.7976 96.0582 37.9627 96.1578 38.1278C96.2905 38.359 93.8673 38.4581 89.1204 38.4581C84.3403 38.4581 82.0499 38.326 82.3818 38.1278C82.747 37.8966 82.249 37.7976 80.7885 37.7976C79.4606 37.7976 78.7635 37.9297 78.8963 38.1278C78.9959 38.326 78.8631 38.4581 78.5644 38.4581C78.2656 38.4581 78.0996 38.326 78.2324 38.1278Z" fill="#252D31"/>
<path d="M45.3029 33.339C45.3029 33.0748 45.4356 32.8436 45.5684 32.8436C45.7012 32.8436 45.7676 32.5794 45.7012 32.2821C45.668 31.9519 45.7012 31.8858 45.7676 32.117C45.9336 32.5463 46.1659 32.5794 48.4232 32.6784C49.3858 32.7115 49.751 32.6124 49.6182 32.3152C49.5518 32.117 49.7842 31.6876 50.1825 31.4234C50.8464 30.9611 51.0788 30.4326 51.1452 29.3097C51.1784 29.0785 51.4107 28.8804 51.6763 28.8804C52.0746 28.8804 52.1742 29.3758 52.1742 31.3574V33.8344H48.7551C45.9004 33.8344 45.3029 33.7353 45.3029 33.339Z" fill="#252D31"/>
<path d="M95.6598 27.3942C95.6598 27.13 95.8922 26.8988 96.1577 26.8988C96.4565 26.8988 96.6556 26.6015 96.6556 26.0731C96.6556 25.5447 96.8548 25.2475 97.1536 25.2475C97.5187 25.2475 97.6515 25.6107 97.6515 26.5685C97.6515 27.8235 97.5851 27.8896 96.6556 27.8896C95.9917 27.8896 95.6598 27.7244 95.6598 27.3942Z" fill="#252D31"/>
<path d="M96.6557 22.9356C96.6557 21.9778 96.7885 21.6145 97.1536 21.6145C97.5188 21.6145 97.6516 21.9778 97.6516 22.9356C97.6516 23.8934 97.5188 24.2567 97.1536 24.2567C96.7885 24.2567 96.6557 23.8934 96.6557 22.9356Z" fill="#252D31"/>
<path d="M59.8091 21.8127C59.8091 21.2843 62.5643 20.4916 62.7303 20.954C62.7967 21.1522 63.0623 21.2843 63.3278 21.2843C63.5934 21.2843 63.7925 21.5154 63.7925 21.7797C63.7925 22.176 63.361 22.2751 61.8008 22.2751C60.3403 22.2751 59.8091 22.143 59.8091 21.8127Z" fill="#252D31"/>
<path d="M64.4564 21.7797C64.4564 21.5154 64.6888 21.2843 64.9543 21.2843C65.2199 21.2843 65.4523 21.1522 65.4523 20.987C65.4523 20.4586 67.4772 20.3595 67.6763 20.8549C67.8423 21.2512 67.9087 21.2512 68.1411 20.8879C68.3402 20.5577 69.7012 20.4256 73.4855 20.3595C76.2739 20.3265 80.3237 20.2274 82.4813 20.1944C86.2656 20.0953 87.6598 20.3265 86.7967 20.8879C86.5975 21.02 87.1618 21.1191 88.0581 21.1191C89.2531 21.1191 89.6847 20.987 89.7179 20.6237C89.7179 20.2604 89.7843 20.2274 89.917 20.5577C90.1826 21.2182 90.9793 19.9632 91.0125 18.8733C91.0125 17.6513 90.4814 16.6936 89.5851 16.3303C89.0208 16.0991 89.1867 16.033 90.4481 16.033L92.0083 16V19.1375V22.2751H78.2324C66.2158 22.2751 64.4564 22.209 64.4564 21.7797Z" fill="#252D31"/>
<path d="M62.3983 16.0991C62.9626 16.033 63.9585 16.033 64.556 16.0991C65.1203 16.1652 64.6556 16.2312 63.4605 16.2312C62.2655 16.2312 61.8008 16.1652 62.3983 16.0991Z" fill="#252D31"/>
<path d="M70.0996 59.43V56.6227H67.112H64.1245V53.4852V50.3477H61.3029H58.4813V46.8469C58.4813 43.3791 58.4813 43.346 59.2448 43.5442C59.6432 43.6433 61.3693 43.7424 63.0622 43.7424H66.1162V46.0542V48.3661H68.1079H70.0996V46.0542V43.7424H74.083H78.0664V46.2193V48.6633L80.8216 48.7624L83.5436 48.8615L83.6432 51.7678L83.7428 54.6411H85.3693H87.0291V56.7218C87.0291 57.8447 87.1287 59.5621 87.2282 60.5199L87.4606 62.2373H78.7635H70.0996V59.43ZM76.0747 52.4944V50.3477H74.083H72.0913V52.4944V54.6411H74.083H76.0747V52.4944Z" fill="#6A16B2"/>
<path d="M101.237 53.4192L101.137 50.5128L97.0872 50.4137C93.1702 50.3477 93.0042 50.3477 93.0042 51.0082C93.0042 51.5366 92.805 51.6687 91.8424 51.6687C90.6805 51.6687 90.6805 51.6687 90.6805 50.2486C90.6805 49.456 90.7801 47.6725 90.8797 46.2854L91.1121 43.7424H99.6764H108.274V45.6579C108.274 46.7148 108.44 47.7386 108.672 47.9698C108.905 48.2009 110.1 48.3661 111.66 48.3661H114.249V51.8339V55.3017H108.274C103.195 55.3017 102.299 55.3677 102.299 55.7971C102.299 56.0613 102.066 56.2925 101.801 56.2925C101.436 56.2925 101.303 55.665 101.237 53.4192Z" fill="#6A16B2"/>
<path d="M86.0333 65.3087C86.0665 64.6152 86.2656 63.129 86.498 62.0061C86.8631 60.2557 86.8631 59.9254 86.498 59.9254C86.1328 59.9254 86.0333 59.397 86.0333 57.7787C86.0333 56.0943 85.9337 55.6319 85.5353 55.6319C85.2698 55.6319 85.0374 55.4008 85.0374 55.1365C85.0374 54.7402 85.3694 54.6081 86.4648 54.6411C88.9876 54.7072 99.1121 54.3109 100.075 54.1127C100.573 54.0136 100.971 53.7164 100.971 53.4522C100.971 53.188 101.27 52.9898 101.635 52.9898C102.266 52.9898 102.299 53.221 102.299 57.1181V61.2465H113.087H123.876V63.8886V66.5307H104.954H86.0333V65.3087Z" fill="#FFB305"/>
<path d="M85.0374 64.384C85.0374 61.6098 85.1038 61.2465 85.6349 61.2465C86.1328 61.2465 86.1992 60.8832 86.2324 58.4392C86.2656 56.2925 86.166 55.6319 85.8009 55.6319C85.5685 55.6319 85.3694 55.4008 85.3694 55.1365C85.3694 54.7402 85.8341 54.6411 87.527 54.6411C89.22 54.6411 89.6847 54.7402 89.6847 55.1365C89.6847 55.4008 89.4856 55.6319 89.22 55.6319C88.9544 55.6319 88.4233 55.8962 88.0582 56.2264C87.3611 56.7548 87.3611 56.887 87.7262 58.3071C88.0582 59.5951 88.0582 60.2887 87.5934 62.6006C87.0955 65.0445 87.0955 65.3748 87.527 65.639C88.3569 66.0684 88.0914 66.5307 87.0291 66.5307C86.3652 66.5307 86.0333 66.6959 86.0333 67.0261C86.0333 67.2903 85.8009 67.5215 85.5353 67.5215C85.137 67.5215 85.0374 66.9601 85.0374 64.384Z" fill="#FFC60C"/>
<path d="M91.0125 51.966C91.0125 49.7862 91.1453 48.3661 91.3445 48.3661C91.5436 48.3661 91.6764 48.5973 91.6764 48.8615C91.6764 49.2578 92.5727 49.3569 96.9212 49.4229L102.133 49.522L102.232 51.1734C102.299 52.0651 102.266 53.2871 102.133 53.8815C101.9 55.2026 101.403 55.3017 95.4938 55.4668L91.0125 55.5659V51.966Z" fill="#FFC60C"/>
<path d="M68.7719 56.1273C68.7719 55.698 69.4026 55.4668 70.2324 55.5989C70.8631 55.731 71.0955 54.7402 71.0955 52.0981C71.0955 48.9936 70.7967 49.2248 74.581 49.2248L76.9046 49.1917L77.0042 46.4836L77.1038 43.7424H84.5063H91.9088L91.942 49.6871V55.6319H87.3279H82.747L82.6474 52.7586L82.5478 49.8523L79.8258 49.7532L77.0706 49.6541V52.6595V55.6319H74.0831C71.6598 55.6319 71.0955 55.731 71.0955 56.1273C71.0955 56.4576 70.7304 56.6227 69.9337 56.6227C69.137 56.6227 68.7719 56.4576 68.7719 56.1273Z" fill="#A930FF"/>
<path d="M113.253 52.3293V49.3569H110.664C109.104 49.3569 107.909 49.1918 107.676 48.9606C107.444 48.7294 107.278 47.5734 107.278 46.1533V43.7424H111.693C114.083 43.7424 117.834 43.6763 119.992 43.6433L123.876 43.5772V49.4229V55.3017H118.564H113.253V52.3293Z" fill="#A930FF"/>
<path d="M64.1245 49.8523C64.1245 49.5881 64.3569 49.3569 64.6556 49.3569C65.1204 49.3569 65.1868 48.9606 65.0872 46.5496L64.9544 43.7424H68.0415H71.0955V46.5496V49.3569H68.1079C65.6847 49.3569 65.1204 49.456 65.1204 49.8523C65.1204 50.1165 64.888 50.3477 64.6224 50.3477C64.3569 50.3477 64.1245 50.1165 64.1245 49.8523Z" fill="#A930FF"/>
<path d="M30.8962 122.114C30.863 121.949 30.8298 120.661 30.7966 119.208L30.7634 116.566L28.0415 116.467L25.3195 116.368L25.2199 111.183L25.1203 105.998L22.3983 105.898L19.7095 105.799L19.5767 92.8529C19.5435 85.7192 19.5435 78.1561 19.5767 76.0424L19.7095 72.1452H24.9875H30.2655L30.2987 74.7213C30.3319 76.1084 30.3319 77.3634 30.2987 77.5286C30.2987 77.6607 35.0124 77.7598 40.8216 77.7598H51.3444V71.9801L51.3776 66.2004H49.1867C47.6265 66.2004 46.8299 66.0353 46.2655 65.606C45.5021 65.0115 45.5021 64.9124 45.6016 60.1566L45.7012 55.3017H42.9792H40.224V49.3569V43.4121H49.8506H59.4772V46.3845V49.3569H62.2988H65.1203V52.4944V55.6319H68.1079H71.0954V58.4392V61.2465H78.5643H86.0664L86 66.7949L85.9668 72.3104L93.9668 72.4094L101.967 72.4755V75.1176V77.7598H104.822H107.676L107.544 80.4019L107.444 83.044H110.365H113.253V97.2455V111.447H110.432H107.61V113.924V116.401H104.788H101.967L102.133 117.491C102.266 118.052 102.232 119.406 102.133 120.463L101.9 122.346H66.4149C46.8962 122.346 30.8962 122.247 30.8962 122.114ZM69.1037 103.157V100.218H71.9253H74.7469V97.4106V94.6033H71.8257H68.9046L69.0374 97.4106L69.2033 100.218H54.8631H40.556L40.4896 94.5373L40.39 88.8237H37.5684H34.7469L34.6473 94.5373L34.5809 100.218H37.5684H40.556V103.124V105.998L54.8299 106.064L69.1037 106.13V103.157Z" fill="#FFF90A"/>
<path d="M45.4689 37.2361C45.4689 36.9058 45.4025 35.7829 45.3361 34.7591L45.2697 32.8436H48.2573H51.2116L51.1784 30.3005C51.1452 28.8804 51.1452 27.5263 51.1452 27.3281C51.1784 27.0309 51.9751 26.8988 53.9668 26.8988H56.7552L56.5892 24.0915L56.4233 21.2842H74.249H92.1079L91.942 24.0915L91.8092 26.8988H94.7304H97.6515L97.5851 32.2821L97.4855 37.6324L71.527 37.7315C46.9295 37.7975 45.5353 37.7645 45.4689 37.2361Z" fill="#FFF90A"/>
</svg>
