<svg width="4023" height="1107" version="1.1" xmlns="http://www.w3.org/2000/svg" desc="Created with imagetracer.js version 1.2.6" ><path fill="rgb(0,0,0)" stroke="rgb(0,0,0)" stroke-width="1" opacity="0" d="M 0 0 L 4022.5 0 L 4023 0.5 L 4023 1107 L 0.5 1107 L 0 1106.5 L 0 641 L 3.5 643 L 32.5 643 L 34 644.5 L 34 693.5 L 38.5 701 Q 42.3 703.7 50.5 702 L 58.5 707 L 63.5 708 Q 65.8 702.7 68 706.5 Q 64.4 709.6 66 717 Q 70.1 715.3 69 719.5 L 70 720.5 L 71 734.5 L 76.5 742 L 99 746 L 102 752.5 L 103 766.5 L 105.5 769 L 115 771 L 115.5 773 L 137.5 773 L 143.5 770 L 146 771 L 146.5 773 L 461.5 773 L 464.5 771 L 502.5 770 L 503.5 771 L 518.5 771 L 522 768.5 L 522 747.5 L 525.5 743 L 530.5 742 L 551.5 742 L 554 739.5 Q 552 724 556 714.5 L 554 709.5 L 555.5 708 L 586.5 708 L 588 706.5 L 588 679.5 L 590.5 677 L 617.5 677 L 619 675.5 L 620 669.5 L 619 668.5 L 619 513.5 L 620 510.5 L 616.5 506 L 592.5 506 L 588 503.5 L 588 476.5 L 585.5 474 L 563.5 475 L 560.5 474 L 558.5 474 Q 554.5 474.5 554 471.5 L 555 469.5 L 555 444 L 557.5 443 L 645.5 443 L 647.5 443 L 651 441.5 L 652 438.5 L 652 411.5 L 654.5 409 L 680.5 409 L 683 408 L 683 379.5 L 681.5 378 L 679.5 377 L 652 377 L 651 374.5 L 651 345.5 L 655.5 342 L 656.5 343 L 682.5 343 Q 685.8 341.3 685 335.5 L 684 334.5 L 684 266.5 L 685 263.5 L 684 262.5 L 684 245.5 L 685 242.5 L 682.5 239 L 529.5 239 L 528 237.5 L 527 235.5 L 527 179.5 L 527 177.5 L 525.5 175 L 523.5 174 L 502.5 174 L 500.5 175 L 496 174 L 495 158.5 L 496 157.5 L 496 143.5 L 495 141 L 491.5 140 L 490.5 141 L 465.5 141 L 463 138.5 L 463 109.5 L 460.5 107 L 431.5 108 L 430.5 107 L 255.5 107 L 253 111.5 L 253 127.5 L 252 132.5 L 253 134.5 L 252 138 L 250 138.5 L 250.5 140 L 246.5 141 L 245.5 140 L 237.5 140 L 236.5 141 L 220.5 141 L 219 142.5 L 219 170.5 L 218 174 L 193.5 174 Q 192.2 176.2 187.5 175 L 186 176.5 L 186 203.5 L 185 207 L 180.5 208 L 155.5 209 L 154 210.5 L 154 267.5 L 155 268.5 L 154 271 L 123.5 271 L 121 272 L 120 274.5 L 120 341.5 L 121.5 343 L 140.5 343 L 141.5 344 L 154 344 L 154 397.5 L 155 400.5 L 154 402.5 L 156.5 407 L 184.5 408 L 186.5 407 L 189 413.5 L 188 414.5 L 188 434.5 L 189 437.5 L 188 442 L 113.5 442 L 112.5 441 L 101.5 441 L 97 438.5 L 97 409.5 L 95.5 408 L 32.5 408 L 30 410.5 L 31 413.5 L 31 438.5 L 28.5 441 L 23.5 442 L 0 442 L 0 0 Z M 3154 302 L 3153 303 L 3134 305 L 3105 314 Q 3085 323 3070 336 Q 3043 360 3027 395 L 3019 417 L 3013 441 L 3011 462 L 3010 463 L 3010 477 L 3009 478 L 3009 505 L 3010 506 L 3011 528 L 3012 529 L 3014 546 L 3019 565 Q 3031 601 3054 626 Q 3074 647 3103 661 L 3129 670 L 3152 674 L 3162 674 L 3163 675 L 3196 674 L 3223 669 Q 3254 660 3277 641 Q 3322 604 3328 530 L 3220 524 L 3218 526 L 3218 533 L 3215 548 Q 3212 559 3206 568 Q 3199 579 3184 582 Q 3160 584 3151 573 L 3141 561 L 3136 547 L 3133 530 L 3132 501 L 3131 500 L 3132 462 L 3133 461 L 3135 440 L 3142 418 L 3150 405 Q 3157 396 3170 393 L 3184 393 L 3198 400 Q 3208 408 3212 422 L 3215 436 L 3216 459 L 3328 454 L 3325 426 L 3317 396 Q 3306 365 3286 344 Q 3263 319 3227 308 L 3193 302 L 3154 302 Z M 823 307 L 823 669 L 825 670 L 915 670 L 916 422 L 935 505 L 935 509 L 938 518 L 938 522 L 941 531 L 941 535 L 944 544 L 944 548 L 947 557 L 947 561 L 954 587 L 954 591 L 957 600 L 957 604 L 960 613 L 960 617 L 963 626 L 963 630 L 966 639 L 966 643 L 973 669 L 974 670 L 1050 670 L 1104 425 L 1105 425 L 1105 670 L 1216 670 L 1216 307 L 1066 307 L 1064 309 L 1064 313 L 1059 330 L 1059 334 L 1053 355 L 1053 359 L 1047 380 L 1047 384 L 1021 492 L 982 337 L 974 309 L 974 307 L 823 307 Z M 1267 307 L 1267 670 L 1542 670 L 1542 574 L 1384 574 L 1384 528 L 1512 528 L 1512 439 L 1384 439 L 1384 400 L 1385 399 L 1542 399 L 1542 307 L 1267 307 Z M 1574 307 L 1574 670 L 1575 670 L 1665 670 L 1666 669 L 1667 424 L 1723 669 L 1725 670 L 1800 670 L 1803 661 L 1803 657 L 1805 652 L 1805 648 L 1807 643 L 1807 639 L 1809 634 L 1809 630 L 1811 625 L 1811 621 L 1813 616 L 1813 612 L 1815 607 L 1815 603 L 1817 598 L 1817 594 L 1819 589 L 1819 585 L 1821 580 L 1821 576 L 1823 571 L 1823 567 L 1825 562 L 1825 558 L 1827 553 L 1832 526 L 1834 521 L 1834 517 L 1836 512 L 1836 508 L 1855 426 L 1855 669 L 1857 670 L 1967 670 L 1967 307 L 1815 307 L 1772 487 Q 1773 491 1770 490 L 1730 327 L 1725 311 L 1725 307 L 1574 307 Z M 2017 307 L 2017 669 L 2019 670 L 2292 670 L 2293 669 L 2293 574 L 2134 574 L 2134 528 L 2263 528 L 2263 439 L 2134 439 L 2134 400 L 2135 399 L 2293 399 L 2293 307 L 2017 307 Z M 2324 307 L 2324 669 L 2326 670 L 2472 670 L 2473 669 L 2502 668 L 2526 663 L 2544 657 Q 2569 647 2588 630 Q 2616 606 2632 571 L 2643 538 L 2647 515 L 2647 504 L 2648 503 L 2648 472 L 2647 471 L 2647 462 L 2640 429 Q 2627 390 2604 363 Q 2571 321 2509 310 L 2496 309 L 2495 308 L 2483 308 L 2482 307 L 2324 307 Z M 2679 307 L 2679 568 L 2680 569 L 2682 587 L 2688 606 L 2698 624 L 2710 638 Q 2728 654 2754 663 L 2783 671 L 2803 673 L 2804 674 L 2817 674 L 2818 675 L 2857 674 L 2858 673 L 2877 671 L 2893 667 Q 2924 657 2946 638 Q 2961 624 2969 604 L 2976 580 L 2977 567 L 2978 566 L 2978 549 L 2979 548 L 2979 307 L 2882 307 L 2882 545 L 2881 546 L 2880 559 L 2873 570 L 2862 577 L 2847 581 L 2825 580 L 2812 574 L 2804 565 L 2800 550 L 2800 307 L 2679 307 Z M 3357 307 L 3357 670 L 3358 670 L 3469 670 L 3470 669 L 3470 584 L 3500 538 L 3556 668 L 3559 670 L 3684 670 L 3685 669 L 3575 443 L 3663 309 L 3663 307 L 3557 307 L 3471 450 L 3470 450 L 3470 307 L 3357 307 Z " /><path fill="rgb(0,0,0)" stroke="rgb(0,0,0)" stroke-width="1" opacity="0" d="M 2444 398 L 2472.5 398 L 2477.5 399 Q 2493.3 403.3 2502 414.5 L 2508 422.5 L 2518 444.5 L 2523 468.5 L 2523 484.5 L 2524 487.5 L 2523 488.5 L 2523 506.5 L 2517 533.5 Q 2509.5 554 2494.5 567 Q 2486.5 574.5 2473.5 577 L 2444 577 L 2444 398 Z " /><path fill="rgb(0,0,0)" stroke="rgb(0,0,0)" stroke-width="1" opacity="0" d="M 0.5 568 L 1 637.5 L 0 637.5 L 0.5 568 Z " /><path fill="rgb(28,36,38)" stroke="rgb(28,36,38)" stroke-width="1" opacity="0.9686274509803922" d="M 255.5 107 L 430.5 107 L 431.5 108 L 445.5 108 L 446.5 107 L 460.5 107 L 463 109.5 L 463 138.5 L 465.5 141 L 490.5 141 L 492.5 140 L 495 141 L 496 143.5 L 496 157.5 L 495 162.5 L 496 163.5 L 496 174 L 501.5 175 L 502.5 174 L 523.5 174 L 527 176.5 L 528 178.5 L 527 179.5 L 527 235.5 L 529.5 239 L 682.5 239 L 684 240.5 L 685 244.5 L 684 245.5 L 684 262.5 L 685 265.5 L 684 266.5 L 684 334.5 L 685 339.5 L 682.5 343 L 656.5 343 L 655.5 342 L 651 345.5 L 651 374.5 L 652 377 L 679.5 377 L 683 379.5 L 683 407.5 L 681.5 408 L 680.5 409 L 654.5 409 L 652 411.5 L 652 438.5 L 649.5 443 L 646.5 444 L 645.5 443 L 557.5 443 L 555 444 L 555 469.5 L 554 471.5 L 559.5 475 L 562.5 474 L 563.5 475 L 573.5 475 L 574.5 474 L 585.5 474 L 588 476.5 L 588 503.5 L 589.5 505 L 592.5 506 L 616.5 506 L 619 508.5 L 620 512.5 L 619 513.5 L 619 668.5 L 620 670.5 L 617.5 677 L 590.5 677 L 588 679.5 L 588 706.5 L 586.5 708 L 555.5 708 L 554 709.5 L 556 714.5 Q 552 724 554 739.5 L 551.5 742 L 530.5 742 L 525.5 743 L 523 745.5 L 522 747.5 L 522 768.5 L 520.5 770 L 518.5 771 L 503.5 771 L 502.5 770 L 488.5 770 L 487.5 771 L 464.5 771 L 461.5 773 L 146 773 Q 147.1 770.3 144.5 771 L 141.5 770 L 137.5 773 L 115 773 Q 116.3 770 112.5 771 L 107.5 770 L 103 766.5 L 102 752.5 L 99 746 L 85.5 743 L 79.5 743 L 72 737.5 L 70 730.5 Q 71 721.5 69 717 L 66 717 L 66 709.5 L 69.5 705 L 72.5 706 L 77.5 705 L 78.5 706 L 99 707 L 100 710.5 L 100 737.5 L 101.5 739 L 103.5 740 L 167.5 740 L 168.5 741 L 517.5 741 L 521 738.5 L 522 736.5 L 522 706.5 L 523.5 705 L 548.5 705 L 550.5 706 L 554 703.5 L 554 678.5 L 555.5 677 L 557.5 676 L 587 676 L 588 672.5 L 588 510.5 L 585.5 507 L 554.5 507 L 554 505.5 L 553 504.5 L 553 495.5 L 554 494.5 L 554 477.5 L 550.5 475 L 549.5 476 L 524.5 476 L 522 475 L 521 472.5 L 521 445.5 L 519.5 444 L 427.5 443 L 426 441.5 L 426 412.5 L 428.5 409 L 647.5 409 L 650 408 L 650 379.5 L 648.5 378 L 524.5 378 L 523 376.5 L 522 374.5 L 522 343 L 529.5 341 L 544.5 341 L 545.5 340 L 585.5 340 L 588.5 342 L 648.5 342 L 651 336.5 L 650 335.5 L 650 273.5 L 648.5 272 L 553.5 273 L 548.5 275 L 464.5 275 L 460.5 273 L 374.5 273 L 369.5 275 L 341.5 275 L 336.5 273 L 302.5 273 L 299.5 275 L 278.5 275 Q 277.3 272.7 272.5 274 L 266.5 271 L 158.5 271 L 155 272 L 155 339.5 L 156.5 341 L 158.5 342 L 184.5 342 L 188 344.5 L 186 391.5 L 188 400.5 L 190.5 403 L 196.5 406 L 214.5 407 L 217.5 406 L 221 408.5 L 221 472.5 L 220 475 L 217.5 476 L 149.5 476 L 148.5 475 L 111.5 475 L 110.5 474 L 109.5 475 L 101.5 475 L 97 474 L 96 471.5 L 96 443 L 91.5 442 L 90.5 443 L 39.5 443 L 36.5 442 L 34 444.5 L 34 462.5 L 33 463.5 L 33 577.5 L 34 578.5 L 34 642 L 36.5 643 L 63.5 643 L 65 644.5 L 66 646.5 L 67 704.5 Q 66.5 708.5 61.5 708 L 50.5 702 Q 40.4 704.1 37 699.5 L 34 693.5 L 34 644.5 L 32.5 643 L 3.5 643 L 0 641 L 1 637.5 L 1 568.5 L 0 567.5 L 0 442 L 23.5 442 L 28.5 441 L 31 438.5 L 31 413.5 L 30 410.5 L 32.5 408 L 95.5 408 L 97 409.5 L 97 438.5 L 98.5 440 Q 103.6 442.4 112.5 441 L 113.5 442 L 188 442 L 189 435.5 L 188 434.5 L 188 414.5 L 189 411.5 L 186.5 407 Q 183 409.5 175.5 408 L 174.5 407 L 156.5 407 L 155 405.5 L 154 401.5 L 155 398.5 L 154 397.5 L 154 344 L 141.5 344 L 140.5 343 L 121.5 343 L 120 341.5 L 120 274.5 L 121 272 L 123.5 271 L 154 271 L 155 268.5 L 154 267.5 L 154 210.5 L 155.5 209 L 180.5 208 L 185 207 L 186 203.5 L 186 176.5 L 187.5 175 Q 192.2 176.2 193.5 174 L 218 174 L 219 170.5 L 219 142.5 L 220.5 141 L 245.5 140 L 248.5 141 L 251 140 L 253 172 L 250.5 173 L 225.5 173 L 220 175 L 220 206.5 L 217.5 209 L 215.5 208 L 186 208 Q 184.3 211.5 185 218.5 L 186 219.5 L 186 233.5 L 188.5 236 L 190.5 237 L 494 237 L 495 233.5 L 494 231.5 L 495 230.5 L 495 173 L 491.5 172 L 490.5 173 L 463.5 173 L 461 172 L 461 152.5 L 463 140 L 254.5 140 L 252 139 L 253 133.5 L 252 128.5 L 253 127.5 L 253 111.5 L 255.5 107 Z " /><path fill="rgb(28,36,38)" stroke="rgb(28,36,38)" stroke-width="1" opacity="0.9686274509803922" d="M 124.5 542 L 153.5 542 L 156 543 L 156 550.5 L 157 551.5 L 157 607.5 L 158.5 609 L 325.5 609 L 326 609.5 L 326 643.5 L 324.5 645 L 314.5 645 L 313.5 644 L 162.5 643 L 160.5 644 L 158 643 L 157 640.5 L 157 615.5 L 157 613.5 Q 157.8 609.8 155.5 609 L 124.5 609 L 122 606.5 L 122 591.5 L 123 590.5 L 123 543.5 L 124.5 542 Z " /><path fill="rgb(28,36,38)" stroke="rgb(28,36,38)" stroke-width="1" opacity="0.9686274509803922" d="M 327.5 576 L 356.5 576 L 360 578.5 L 360 607.5 L 358.5 609 L 327.5 609 L 327 605.5 L 326 604.5 L 326 577.5 L 327.5 576 Z " /><path fill="rgb(251,242,10)" stroke="rgb(251,242,10)" stroke-width="1" opacity="0.996078431372549" d="M 250.5 138 L 254.5 140 L 463 140 L 461 152.5 L 461 172 L 463.5 173 L 490.5 173 L 492.5 172 L 495 173 L 495 230.5 L 494 232.5 L 495 234.5 L 494 237 L 190.5 237 L 186 233.5 L 185 211.5 L 186 208 L 215.5 208 L 217.5 209 L 220 206.5 L 220 175 L 225.5 173 L 250.5 173 L 253 172 L 251 139.5 L 250.5 138 Z " /><path fill="rgb(251,242,10)" stroke="rgb(251,242,10)" stroke-width="1" opacity="0.996078431372549" d="M 158.5 271 L 266.5 271 L 269 272 L 269 304.5 L 270.5 306 L 300.5 306 L 302 307.5 L 303 313.5 L 302 314.5 L 302 341.5 L 304.5 344 L 337 344 L 338 346.5 L 338 377 L 341.5 378 L 424.5 378 L 427 374.5 L 428 368.5 Q 424.2 359.8 426 345.5 L 427.5 344 L 459.5 344 L 462 341.5 L 462 310.5 L 461 307 Q 464.3 304.9 472.5 306 L 474.5 306 L 479.5 307 L 520.5 308 L 522 309.5 L 522 374.5 L 524.5 378 L 648.5 378 L 650 379.5 L 650 407.5 L 648.5 408 L 647.5 409 L 428.5 409 L 427 410.5 L 426 412.5 L 426 441.5 L 427.5 443 L 519.5 444 L 521 445.5 L 521 472.5 L 522 475 L 524.5 476 L 549.5 476 L 551.5 476 L 554 477.5 L 553 504.5 L 554 507 L 585.5 507 L 587 508.5 L 588 510.5 L 588 672.5 L 587 676 L 557.5 676 L 554 678.5 L 554 703.5 L 552.5 705 L 549.5 706 L 548.5 705 L 523.5 705 L 522 706.5 L 522 736.5 L 519.5 740 L 517.5 741 L 168.5 741 L 167.5 740 L 103.5 740 L 100 737.5 L 100 710.5 L 99 707 L 73.5 705 L 71.5 706 L 69.5 705 L 67 706 L 67 687.5 L 66 686.5 L 66 646.5 L 63.5 643 L 36.5 643 L 34 642 L 34 578.5 L 33 577.5 L 33 463.5 L 34 462.5 L 34 444.5 L 36.5 442 L 39.5 443 L 90.5 443 L 93.5 442 L 96 443 L 96 471.5 L 97 474 Q 101.5 475.7 109.5 475 L 111.5 475 L 217.5 476 L 220 475 L 221 472.5 L 221 408.5 L 215.5 406 L 210.5 407 L 209.5 406 L 196.5 406 L 188 400.5 L 186 391.5 L 186 382.5 L 187 381.5 L 188 344.5 L 184.5 342 L 158.5 342 L 155 339.5 L 155 272.5 L 157.5 272 L 158.5 271 Z M 125 542 L 123 544 L 123 591 L 122 592 L 122 607 L 125 609 L 156 609 Q 158 610 157 614 L 157 616 L 157 641 L 158 643 L 161 644 L 163 643 L 314 644 L 315 645 L 325 645 L 326 644 L 326 610 L 326 609 L 159 609 L 157 608 L 157 552 L 156 551 L 156 543 L 154 542 L 125 542 Z M 328 576 L 326 578 L 326 605 L 327 606 L 328 609 L 359 609 L 360 608 L 360 579 L 357 576 L 328 576 Z " /><path fill="rgb(146,50,233)" stroke="rgb(146,50,233)" stroke-width="1" opacity="0.9882352941176471" d="M 609.5 272 L 648.5 272 L 650 273.5 L 650 335.5 L 651 337.5 L 648.5 342 L 588.5 342 L 585.5 340 L 545.5 340 L 544.5 341 L 529.5 341 L 524.5 343 L 523 338.5 L 524 335.5 Q 521.8 334.2 523 329.5 L 524 328.5 L 524 317.5 L 522 306 L 519.5 305 L 461.5 305 L 460 303.5 Q 462.4 298.4 461 289.5 L 460 288.5 L 460 278.5 Q 462.7 276.8 458.5 275 L 375.5 275 L 374 276.5 L 374 303.5 L 371.5 306 L 343.5 306 L 340 308.5 L 338 316.5 L 339 317.5 L 339 331.5 L 337 342 L 304 342 L 304 308.5 L 306.5 306 L 335.5 306 L 337 304.5 L 337 276.5 L 335.5 275 L 303.5 275 L 303 276.5 L 302 278.5 L 303 279.5 L 303 305 L 272.5 305 L 271 303.5 L 272 300.5 L 272 274 L 278.5 275 L 299.5 275 L 302.5 273 L 336.5 273 L 341.5 275 L 369.5 275 L 374.5 273 L 460.5 273 L 464.5 275 L 548.5 275 L 553.5 273 L 608.5 273 L 609.5 272 Z M 637 274 L 636 275 L 555 275 L 553 277 L 553 300 L 554 302 L 558 305 Q 562 304 564 306 L 587 306 L 588 308 L 588 339 L 591 340 L 648 340 L 649 338 L 649 277 L 648 276 L 648 274 L 637 274 Z " /><path fill="rgb(146,50,233)" stroke="rgb(146,50,233)" stroke-width="1" opacity="0.9882352941176471" d="M 3153.5 302 L 3192.5 302 L 3201 303.5 L 3193.5 304 L 3192.5 303 L 3153.5 303 L 3152.5 304 L 3139.5 305 L 3139.5 304 L 3152.5 303 L 3153.5 302 Z " /><path fill="rgb(146,50,233)" stroke="rgb(146,50,233)" stroke-width="1" opacity="0.9882352941176471" d="M 3202.5 304 Q 3227.4 306.1 3245.5 315 Q 3269.4 325.6 3286 343.5 Q 3302.6 361.4 3313 385.5 L 3320 404.5 L 3324 420.5 L 3327 437.5 L 3327 445.5 L 3326 445.5 L 3326 437.5 L 3323 425.5 L 3323 420.5 L 3319 404.5 L 3312 385.5 Q 3298.6 354.4 3274.5 334 Q 3258.9 321.1 3238.5 313 L 3218.5 307 L 3202.5 305 L 3202.5 304 Z " /><path fill="rgb(146,50,233)" stroke="rgb(146,50,233)" stroke-width="1" opacity="0.9882352941176471" d="M 3133.5 305 L 3138 305.5 L 3121.5 309 L 3094.5 320 Q 3073.3 331.3 3058 348.5 Q 3032.5 376 3020 416.5 L 3014 441.5 L 3012 461.5 L 3011 462.5 L 3010 504.5 L 3011 505.5 L 3011 518.5 L 3012 519.5 L 3012 527.5 L 3013 528.5 L 3015 545.5 L 3021 567.5 L 3027 582.5 Q 3042.1 615.9 3068.5 638 Q 3085.3 652.7 3107.5 662 L 3137.5 671 L 3150 672.5 L 3143.5 673 L 3121.5 668 L 3094.5 657 Q 3071.2 644.3 3054 625.5 Q 3030.8 600.7 3019 564.5 L 3014 545.5 L 3012 528.5 L 3011 527.5 L 3010 505.5 L 3009 504.5 L 3009 477.5 L 3010 476.5 L 3010 462.5 L 3011 461.5 L 3013 440.5 L 3019 416.5 L 3027 394.5 Q 3042.7 359.7 3069.5 336 Q 3084.7 322.7 3104.5 314 L 3133.5 305 Z " /><path fill="rgb(146,50,233)" stroke="rgb(146,50,233)" stroke-width="1" opacity="0.9882352941176471" d="M 823 307 L 974 307.5 L 824 308 L 824 668.5 L 824.5 669 L 914.5 669 L 914.5 670 L 824.5 670 L 823 668.5 L 823 307 Z " /><path fill="rgb(146,50,233)" stroke="rgb(146,50,233)" stroke-width="1" opacity="0.9882352941176471" d="M 1065.5 307 L 1216 307.5 L 1065 308 L 1064.5 312 L 1064 308.5 L 1065.5 307 Z " /><path fill="rgb(146,50,233)" stroke="rgb(146,50,233)" stroke-width="1" opacity="0.9882352941176471" d="M 1267.5 307 L 1542 307.5 L 1267.5 308 L 1267.5 307 Z " /><path fill="rgb(146,50,233)" stroke="rgb(146,50,233)" stroke-width="1" opacity="0.9882352941176471" d="M 1574.5 307 L 1724.5 307 L 1725 309.5 L 1724 309.5 L 1723.5 308 L 1574.5 308 L 1574.5 307 Z " /><path fill="rgb(146,50,233)" stroke="rgb(146,50,233)" stroke-width="1" opacity="0.9882352941176471" d="M 1815 307 L 1967 307 L 1967 670 L 1856.5 670 L 1855 668.5 L 1855 426.5 L 1854 424.5 L 1855.5 419 L 1856 669 L 1965.5 669 L 1966 668.5 L 1966 308 L 1816.5 308 L 1816 309.5 L 1815 309.5 L 1815 307 Z " /><path fill="rgb(146,50,233)" stroke="rgb(146,50,233)" stroke-width="1" opacity="0.9882352941176471" d="M 2017 307 L 2293 307 L 2293 399 L 2134.5 399 L 2134 399.5 L 2134 439 L 2263 439 L 2263 528 L 2134 528 L 2134 574 L 2293 574 L 2293 668.5 L 2291.5 670 L 2018.5 670 L 2017 668.5 L 2017 307 Z M 2018 308 L 2018 669 L 2292 669 L 2292 575 L 2133 575 L 2133 527 L 2262 527 L 2262 440 L 2134 440 L 2133 440 L 2133 400 L 2135 398 L 2292 398 L 2292 309 L 2292 308 L 2018 308 Z " /><path fill="rgb(146,50,233)" stroke="rgb(146,50,233)" stroke-width="1" opacity="0.9882352941176471" d="M 2324 307 L 2481.5 307 L 2482.5 308 L 2494.5 308 L 2495.5 309 L 2508.5 310 Q 2571.3 321.2 2604 362.5 Q 2627.4 390.1 2640 428.5 L 2647 461.5 L 2647 470.5 L 2648 471.5 L 2648 502.5 L 2647 503.5 L 2647 514.5 L 2643 537.5 L 2632 570.5 Q 2615.7 606.2 2587.5 630 Q 2568.6 646.6 2543.5 657 L 2513.5 666 L 2494.5 668 L 2494.5 667 L 2501.5 667 L 2517.5 664 L 2545.5 655 Q 2579.4 640.4 2602 614.5 Q 2627 588 2639 548.5 L 2646 514.5 L 2647 471.5 L 2646 470.5 L 2646 461.5 L 2645 460.5 L 2643 443.5 L 2632 409.5 Q 2615.2 371.8 2586.5 346 Q 2569.7 331.3 2547.5 322 L 2530.5 316 L 2502.5 310 L 2482.5 309 L 2481.5 308 L 2325 308 L 2325 669 L 2471.5 669 L 2471.5 670 L 2325.5 670 L 2324 668.5 L 2324 307 Z " /><path fill="rgb(146,50,233)" stroke="rgb(146,50,233)" stroke-width="1" opacity="0.9882352941176471" d="M 2679.5 307 L 2800 307 L 2800 549.5 L 2804 564.5 L 2811.5 574 L 2824.5 580 L 2846.5 581 L 2861.5 577 L 2873 570 L 2880 558.5 L 2881 545.5 L 2882 544.5 L 2882 307 L 2979 307 L 2979 547.5 L 2978 548.5 L 2978 565.5 L 2977 566.5 L 2976 579.5 L 2969 603.5 Q 2960.6 624.1 2945.5 638 Q 2923.9 657.4 2892.5 667 L 2876.5 671 L 2857.5 673 L 2856.5 674 L 2817.5 675 L 2816.5 674 L 2803.5 674 L 2802.5 673 L 2782.5 671 L 2753.5 663 Q 2728.2 653.6 2710 638 L 2698 623.5 L 2688 605.5 L 2682 586.5 L 2680 568.5 L 2679 567.5 L 2679 365.5 L 2680 365.5 L 2680 567.5 Q 2682.7 569.3 2681 575.5 L 2685 594.5 L 2694 615.5 Q 2702.2 629.8 2714.5 640 Q 2728.6 651.4 2746.5 659 L 2769.5 667 L 2803.5 673 L 2844.5 674 L 2845.5 673 L 2856.5 673 L 2857.5 672 L 2876.5 670 L 2901.5 663 L 2915.5 657 L 2935.5 645 L 2954 627.5 Q 2962.5 617 2968 603.5 L 2975 579.5 L 2976 566.5 L 2977 565.5 L 2977 548.5 L 2978 547.5 L 2978 308 L 2883 308 L 2883 544.5 L 2880 561.5 L 2871.5 572 Q 2864 578.5 2852.5 581 L 2830.5 582 Q 2829.3 579.7 2824.5 581 L 2812.5 576 L 2805 568.5 L 2801 559.5 L 2799 549.5 L 2799 308 L 2679.5 308 L 2679.5 307 Z " /><path fill="rgb(146,50,233)" stroke="rgb(146,50,233)" stroke-width="1" opacity="0.9882352941176471" d="M 3357.5 307 L 3470 307 L 3470 449.5 L 3470 451.5 L 3469.5 453 L 3469 308 L 3357.5 308 L 3357.5 307 Z " /><path fill="rgb(146,50,233)" stroke="rgb(146,50,233)" stroke-width="1" opacity="0.9882352941176471" d="M 3557 307 L 3662.5 307 L 3663 308.5 L 3642.5 339 L 3643 337.5 L 3662 308.5 L 3558.5 308 L 3523.5 364 L 3524 362.5 L 3557 307 Z " /><path fill="rgb(146,50,233)" stroke="rgb(146,50,233)" stroke-width="1" opacity="0.9882352941176471" d="M 375.5 308 L 404.5 309 L 406 310.5 L 407 316.5 L 406 321.5 L 407 322.5 L 407 336.5 L 409.5 343 L 423.5 343 L 425 344.5 L 425 376 L 341.5 376 L 340 374.5 L 340 346.5 L 342.5 343 L 373 343 L 373 310.5 L 375.5 308 Z " /><path fill="rgb(146,50,233)" stroke="rgb(146,50,233)" stroke-width="1" opacity="0.9882352941176471" d="M 974.5 309 L 975 311.5 L 974 311.5 L 974.5 309 Z " /><path fill="rgb(146,50,233)" stroke="rgb(146,50,233)" stroke-width="1" opacity="0.9882352941176471" d="M 1725.5 311 L 1726 313.5 L 1725 313.5 L 1725.5 311 Z " /><path fill="rgb(146,50,233)" stroke="rgb(146,50,233)" stroke-width="1" opacity="0.9882352941176471" d="M 1814.5 311 L 1815 313.5 L 1814 313.5 L 1814.5 311 Z " /><path fill="rgb(146,50,233)" stroke="rgb(146,50,233)" stroke-width="1" opacity="0.9882352941176471" d="M 975.5 313 L 976 315.5 L 975 315.5 L 975.5 313 Z " /><path fill="rgb(146,50,233)" stroke="rgb(146,50,233)" stroke-width="1" opacity="0.9882352941176471" d="M 1063.5 313 L 1064 315.5 L 1063 315.5 L 1063.5 313 Z " /><path fill="rgb(146,50,233)" stroke="rgb(146,50,233)" stroke-width="1" opacity="0.9882352941176471" d="M 1726.5 315 L 1727 317.5 L 1726 317.5 L 1726.5 315 Z " /><path fill="rgb(146,50,233)" stroke="rgb(146,50,233)" stroke-width="1" opacity="0.9882352941176471" d="M 1813.5 315 L 1814 318.5 L 1810.5 331 L 1810 327.5 L 1813.5 315 Z " /><path fill="rgb(146,50,233)" stroke="rgb(146,50,233)" stroke-width="1" opacity="0.9882352941176471" d="M 976.5 317 L 977 319.5 L 976 319.5 L 976.5 317 Z " /><path fill="rgb(146,50,233)" stroke="rgb(146,50,233)" stroke-width="1" opacity="0.9882352941176471" d="M 1062.5 317 L 1063 320.5 L 1059.5 333 L 1059 329.5 L 1062.5 317 Z " /><path fill="rgb(146,50,233)" stroke="rgb(146,50,233)" stroke-width="1" opacity="0.9882352941176471" d="M 1727.5 319 L 1728 321.5 L 1727 321.5 L 1727.5 319 Z " /><path fill="rgb(146,50,233)" stroke="rgb(146,50,233)" stroke-width="1" opacity="0.9882352941176471" d="M 977.5 321 L 978 323.5 L 977 323.5 L 977.5 321 Z " /><path fill="rgb(146,50,233)" stroke="rgb(146,50,233)" stroke-width="1" opacity="0.9882352941176471" d="M 1728.5 323 L 1741 372.5 L 1740 372.5 L 1728 325.5 L 1728.5 323 Z " /><path fill="rgb(146,50,233)" stroke="rgb(146,50,233)" stroke-width="1" opacity="0.9882352941176471" d="M 978.5 325 L 979 327.5 L 978 327.5 L 978.5 325 Z " /><path fill="rgb(146,50,233)" stroke="rgb(146,50,233)" stroke-width="1" opacity="0.9882352941176471" d="M 979.5 329 L 980 331.5 L 979 331.5 L 979.5 329 Z " /><path fill="rgb(146,50,233)" stroke="rgb(146,50,233)" stroke-width="1" opacity="0.9882352941176471" d="M 1809.5 332 L 1810 334.5 L 1809 334.5 L 1809.5 332 Z " /><path fill="rgb(146,50,233)" stroke="rgb(146,50,233)" stroke-width="1" opacity="0.9882352941176471" d="M 980.5 333 L 992 378.5 L 991 378.5 L 980 335.5 L 980.5 333 Z " /><path fill="rgb(146,50,233)" stroke="rgb(146,50,233)" stroke-width="1" opacity="0.9882352941176471" d="M 1058.5 334 L 1059 336.5 L 1058 336.5 L 1058.5 334 Z " /><path fill="rgb(146,50,233)" stroke="rgb(146,50,233)" stroke-width="1" opacity="0.9882352941176471" d="M 1808.5 336 L 1809 338.5 L 1808 338.5 L 1808.5 336 Z " /><path fill="rgb(146,50,233)" stroke="rgb(146,50,233)" stroke-width="1" opacity="0.9882352941176471" d="M 1057.5 338 L 1058 340.5 L 1057 340.5 L 1057.5 338 Z " /><path fill="rgb(146,50,233)" stroke="rgb(146,50,233)" stroke-width="1" opacity="0.9882352941176471" d="M 1807.5 340 L 1808 342.5 L 1807 342.5 L 1807.5 340 Z " /><path fill="rgb(146,50,233)" stroke="rgb(146,50,233)" stroke-width="1" opacity="0.9882352941176471" d="M 3641.5 340 L 3640.5 342 L 3641.5 340 Z " /><path fill="rgb(146,50,233)" stroke="rgb(146,50,233)" stroke-width="1" opacity="0.9882352941176471" d="M 1056.5 342 L 1057 344.5 L 1056 344.5 L 1056.5 342 Z " /><path fill="rgb(146,50,233)" stroke="rgb(146,50,233)" stroke-width="1" opacity="0.9882352941176471" d="M 3639.5 343 L 3638.5 345 L 3639.5 343 Z " /><path fill="rgb(146,50,233)" stroke="rgb(146,50,233)" stroke-width="1" opacity="0.9882352941176471" d="M 1806.5 344 L 1807 347.5 L 1804.5 356 L 1804 352.5 L 1806.5 344 Z " /><path fill="rgb(146,50,233)" stroke="rgb(146,50,233)" stroke-width="1" opacity="0.9882352941176471" d="M 1055.5 346 L 1056 349.5 L 1053.5 358 L 1053 354.5 L 1055.5 346 Z " /><path fill="rgb(146,50,233)" stroke="rgb(146,50,233)" stroke-width="1" opacity="0.9882352941176471" d="M 3637.5 346 L 3636.5 348 L 3637.5 346 Z " /><path fill="rgb(146,50,233)" stroke="rgb(146,50,233)" stroke-width="1" opacity="0.9882352941176471" d="M 3635.5 349 L 3635 350.5 L 3575 442.5 L 3599 491.5 L 3598 491.5 L 3574 441.5 L 3635.5 349 Z " /><path fill="rgb(146,50,233)" stroke="rgb(146,50,233)" stroke-width="1" opacity="0.9882352941176471" d="M 1803.5 357 L 1804 359.5 L 1803 359.5 L 1803.5 357 Z " /><path fill="rgb(146,50,233)" stroke="rgb(146,50,233)" stroke-width="1" opacity="0.9882352941176471" d="M 1052.5 359 L 1053 361.5 L 1052 361.5 L 1052.5 359 Z " /><path fill="rgb(146,50,233)" stroke="rgb(146,50,233)" stroke-width="1" opacity="0.9882352941176471" d="M 1802.5 361 L 1803 363.5 L 1802 363.5 L 1802.5 361 Z " /><path fill="rgb(146,50,233)" stroke="rgb(146,50,233)" stroke-width="1" opacity="0.9882352941176471" d="M 1051.5 363 L 1052 365.5 L 1051 365.5 L 1051.5 363 Z " /><path fill="rgb(146,50,233)" stroke="rgb(146,50,233)" stroke-width="1" opacity="0.9882352941176471" d="M 1801.5 365 L 1802 367.5 L 1801 367.5 L 1801.5 365 Z " /><path fill="rgb(146,50,233)" stroke="rgb(146,50,233)" stroke-width="1" opacity="0.9882352941176471" d="M 3522.5 365 L 3522 366.5 L 3512.5 382 L 3513 380.5 L 3522.5 365 Z " /><path fill="rgb(146,50,233)" stroke="rgb(146,50,233)" stroke-width="1" opacity="0.9882352941176471" d="M 1050.5 367 L 1051 369.5 L 1050 369.5 L 1050.5 367 Z " /><path fill="rgb(146,50,233)" stroke="rgb(146,50,233)" stroke-width="1" opacity="0.9882352941176471" d="M 1800.5 369 L 1801 371.5 L 1800 371.5 L 1800.5 369 Z " /><path fill="rgb(146,50,233)" stroke="rgb(146,50,233)" stroke-width="1" opacity="0.9882352941176471" d="M 1049.5 371 L 1050 373.5 L 1049 373.5 L 1049.5 371 Z " /><path fill="rgb(146,50,233)" stroke="rgb(146,50,233)" stroke-width="1" opacity="0.9882352941176471" d="M 1799.5 373 L 1800 376.5 L 1798.5 381 L 1798 377.5 L 1799.5 373 Z " /><path fill="rgb(146,50,233)" stroke="rgb(146,50,233)" stroke-width="1" opacity="0.9882352941176471" d="M 1741.5 374 L 1742 376.5 L 1741 376.5 L 1741.5 374 Z " /><path fill="rgb(146,50,233)" stroke="rgb(146,50,233)" stroke-width="1" opacity="0.9882352941176471" d="M 1048.5 375 L 1049 378.5 L 1047.5 383 L 1047 379.5 L 1048.5 375 Z " /><path fill="rgb(146,50,233)" stroke="rgb(146,50,233)" stroke-width="1" opacity="0.9882352941176471" d="M 1742.5 378 L 1743 380.5 L 1742 380.5 L 1742.5 378 Z " /><path fill="rgb(146,50,233)" stroke="rgb(146,50,233)" stroke-width="1" opacity="0.9882352941176471" d="M 992.5 380 L 993 382.5 L 992 382.5 L 992.5 380 Z " /><path fill="rgb(146,50,233)" stroke="rgb(146,50,233)" stroke-width="1" opacity="0.9882352941176471" d="M 1743.5 382 L 1744 384.5 L 1743 384.5 L 1743.5 382 Z " /><path fill="rgb(146,50,233)" stroke="rgb(146,50,233)" stroke-width="1" opacity="0.9882352941176471" d="M 1797.5 382 L 1798 384.5 L 1797 384.5 L 1797.5 382 Z " /><path fill="rgb(146,50,233)" stroke="rgb(146,50,233)" stroke-width="1" opacity="0.9882352941176471" d="M 3511.5 383 L 3511 384.5 L 3509.5 387 L 3510 385.5 L 3511.5 383 Z " /><path fill="rgb(146,50,233)" stroke="rgb(146,50,233)" stroke-width="1" opacity="0.9882352941176471" d="M 993.5 384 L 994 386.5 L 993 386.5 L 993.5 384 Z " /><path fill="rgb(146,50,233)" stroke="rgb(146,50,233)" stroke-width="1" opacity="0.9882352941176471" d="M 1046.5 384 L 1047 386.5 L 1046 386.5 L 1046.5 384 Z " /><path fill="rgb(146,50,233)" stroke="rgb(146,50,233)" stroke-width="1" opacity="0.9882352941176471" d="M 1744.5 386 L 1745 388.5 L 1744 388.5 L 1744.5 386 Z " /><path fill="rgb(146,50,233)" stroke="rgb(146,50,233)" stroke-width="1" opacity="0.9882352941176471" d="M 1796.5 386 L 1797 388.5 L 1796 388.5 L 1796.5 386 Z " /><path fill="rgb(146,50,233)" stroke="rgb(146,50,233)" stroke-width="1" opacity="0.9882352941176471" d="M 994.5 388 L 995 390.5 L 994 390.5 L 994.5 388 Z " /><path fill="rgb(146,50,233)" stroke="rgb(146,50,233)" stroke-width="1" opacity="0.9882352941176471" d="M 1045.5 388 L 1046 390.5 L 1045 390.5 L 1045.5 388 Z " /><path fill="rgb(146,50,233)" stroke="rgb(146,50,233)" stroke-width="1" opacity="0.9882352941176471" d="M 3508.5 388 L 3508 389.5 L 3504.5 395 L 3505 393.5 L 3508.5 388 Z " /><path fill="rgb(146,50,233)" stroke="rgb(146,50,233)" stroke-width="1" opacity="0.9882352941176471" d="M 1745.5 390 L 1746 392.5 L 1745 392.5 L 1745.5 390 Z " /><path fill="rgb(146,50,233)" stroke="rgb(146,50,233)" stroke-width="1" opacity="0.9882352941176471" d="M 1795.5 390 L 1796 392.5 L 1795 392.5 L 1795.5 390 Z " /><path fill="rgb(146,50,233)" stroke="rgb(146,50,233)" stroke-width="1" opacity="0.9882352941176471" d="M 995.5 392 L 996 394.5 L 995 394.5 L 995.5 392 Z " /><path fill="rgb(146,50,233)" stroke="rgb(146,50,233)" stroke-width="1" opacity="0.9882352941176471" d="M 1044.5 392 L 1045 394.5 L 1044 394.5 L 1044.5 392 Z " /><path fill="rgb(146,50,233)" stroke="rgb(146,50,233)" stroke-width="1" opacity="0.9882352941176471" d="M 3169.5 392 Q 3180.4 390.6 3187.5 393 L 3203 403.5 Q 3210 410.5 3213 421.5 L 3216 435.5 L 3217 458 L 3231 458.5 L 3216 459 L 3215 435.5 L 3212 421.5 Q 3207.7 407.8 3197.5 400 L 3183.5 393 L 3169.5 393 Q 3156.7 395.7 3150 404.5 L 3142 417.5 L 3135 439.5 L 3133 460.5 L 3132 461.5 L 3131.5 480 L 3131 461.5 L 3132 460.5 L 3134 439.5 L 3138 424.5 L 3145 409.5 L 3155.5 398 L 3169.5 392 Z " /><path fill="rgb(146,50,233)" stroke="rgb(146,50,233)" stroke-width="1" opacity="0.9882352941176471" d="M 1746.5 394 L 1747 396.5 L 1746 396.5 L 1746.5 394 Z " /><path fill="rgb(146,50,233)" stroke="rgb(146,50,233)" stroke-width="1" opacity="0.9882352941176471" d="M 1794.5 394 L 1795 396.5 L 1794 396.5 L 1794.5 394 Z " /><path fill="rgb(146,50,233)" stroke="rgb(146,50,233)" stroke-width="1" opacity="0.9882352941176471" d="M 996.5 396 L 997 398.5 L 996 398.5 L 996.5 396 Z " /><path fill="rgb(146,50,233)" stroke="rgb(146,50,233)" stroke-width="1" opacity="0.9882352941176471" d="M 1043.5 396 L 1044 398.5 L 1043 398.5 L 1043.5 396 Z " /><path fill="rgb(146,50,233)" stroke="rgb(146,50,233)" stroke-width="1" opacity="0.9882352941176471" d="M 3503.5 396 L 3503 397.5 L 3501.5 400 L 3502 398.5 L 3503.5 396 Z " /><path fill="rgb(146,50,233)" stroke="rgb(146,50,233)" stroke-width="1" opacity="0.9882352941176471" d="M 2443 397 L 2472.5 397 L 2477.5 398 Q 2495.4 403.1 2505 416.5 Q 2514 428.5 2519 444.5 L 2523 461.5 L 2524 484.5 L 2525 486.5 L 2524 486.5 L 2523 484.5 L 2523 468.5 L 2518 444.5 L 2508 422.5 L 2495.5 408 Q 2486.5 400.5 2472.5 398 L 2444 398 L 2444 576.5 L 2444.5 577 L 2473.5 577 L 2487.5 572 L 2503 558.5 Q 2512.7 546.7 2518 530.5 L 2523 506.5 L 2523.5 488 L 2524 506.5 L 2521 523.5 L 2516 538.5 Q 2508.3 557.3 2493.5 569 Q 2485.6 575.6 2473.5 578 L 2443 578 L 2443 397 Z " /><path fill="rgb(146,50,233)" stroke="rgb(146,50,233)" stroke-width="1" opacity="0.9882352941176471" d="M 1383 398 L 1542 398.5 L 1384 399 L 1384 438.5 L 1384.5 439 L 1512 439 L 1512 528 L 1384 528 L 1384 574 L 1542 574.5 L 1383 575 L 1383 527 L 1511 527 L 1511 440 L 1383.5 440 L 1383 439.5 L 1383 398 Z " /><path fill="rgb(146,50,233)" stroke="rgb(146,50,233)" stroke-width="1" opacity="0.9882352941176471" d="M 1747.5 398 L 1748 400.5 L 1747 400.5 L 1747.5 398 Z " /><path fill="rgb(146,50,233)" stroke="rgb(146,50,233)" stroke-width="1" opacity="0.9882352941176471" d="M 1793.5 398 L 1794 401.5 L 1792.5 406 L 1792 402.5 L 1793.5 398 Z " /><path fill="rgb(146,50,233)" stroke="rgb(146,50,233)" stroke-width="1" opacity="0.9882352941176471" d="M 997.5 400 L 998 402.5 L 997 402.5 L 997.5 400 Z " /><path fill="rgb(146,50,233)" stroke="rgb(146,50,233)" stroke-width="1" opacity="0.9882352941176471" d="M 1042.5 400 L 1043 403.5 L 1041.5 408 L 1041 404.5 L 1042.5 400 Z " /><path fill="rgb(146,50,233)" stroke="rgb(146,50,233)" stroke-width="1" opacity="0.9882352941176471" d="M 3500.5 401 L 3500 402.5 L 3498.5 405 L 3499 403.5 L 3500.5 401 Z " /><path fill="rgb(146,50,233)" stroke="rgb(146,50,233)" stroke-width="1" opacity="0.9882352941176471" d="M 1748.5 402 L 1749 404.5 L 1748 404.5 L 1748.5 402 Z " /><path fill="rgb(146,50,233)" stroke="rgb(146,50,233)" stroke-width="1" opacity="0.9882352941176471" d="M 998.5 404 L 999 406.5 L 998 406.5 L 998.5 404 Z " /><path fill="rgb(146,50,233)" stroke="rgb(146,50,233)" stroke-width="1" opacity="0.9882352941176471" d="M 1749.5 406 L 1750 408.5 L 1749 408.5 L 1749.5 406 Z " /><path fill="rgb(146,50,233)" stroke="rgb(146,50,233)" stroke-width="1" opacity="0.9882352941176471" d="M 3497.5 406 L 3497 407.5 L 3493.5 413 L 3494 411.5 L 3497.5 406 Z " /><path fill="rgb(146,50,233)" stroke="rgb(146,50,233)" stroke-width="1" opacity="0.9882352941176471" d="M 1791.5 407 L 1792 409.5 L 1791 409.5 L 1791.5 407 Z " /><path fill="rgb(146,50,233)" stroke="rgb(146,50,233)" stroke-width="1" opacity="0.9882352941176471" d="M 999.5 408 L 1000 410.5 L 999 410.5 L 999.5 408 Z " /><path fill="rgb(146,50,233)" stroke="rgb(146,50,233)" stroke-width="1" opacity="0.9882352941176471" d="M 1040.5 409 L 1041 411.5 L 1040 411.5 L 1040.5 409 Z " /><path fill="rgb(146,50,233)" stroke="rgb(146,50,233)" stroke-width="1" opacity="0.9882352941176471" d="M 1750.5 410 L 1751 412.5 L 1750 412.5 L 1750.5 410 Z " /><path fill="rgb(146,50,233)" stroke="rgb(146,50,233)" stroke-width="1" opacity="0.9882352941176471" d="M 1790.5 411 L 1791 413.5 L 1790 413.5 L 1790.5 411 Z " /><path fill="rgb(146,50,233)" stroke="rgb(146,50,233)" stroke-width="1" opacity="0.9882352941176471" d="M 1000.5 412 L 1001 414.5 L 1000 414.5 L 1000.5 412 Z " /><path fill="rgb(146,50,233)" stroke="rgb(146,50,233)" stroke-width="1" opacity="0.9882352941176471" d="M 1039.5 413 L 1040 415.5 L 1039 415.5 L 1039.5 413 Z " /><path fill="rgb(146,50,233)" stroke="rgb(146,50,233)" stroke-width="1" opacity="0.9882352941176471" d="M 1751.5 414 L 1752 416.5 L 1751 416.5 L 1751.5 414 Z " /><path fill="rgb(146,50,233)" stroke="rgb(146,50,233)" stroke-width="1" opacity="0.9882352941176471" d="M 3492.5 414 L 3492 415.5 L 3490.5 418 L 3491 416.5 L 3492.5 414 Z " /><path fill="rgb(146,50,233)" stroke="rgb(146,50,233)" stroke-width="1" opacity="0.9882352941176471" d="M 1789.5 415 L 1790 417.5 L 1789 417.5 L 1789.5 415 Z " /><path fill="rgb(146,50,233)" stroke="rgb(146,50,233)" stroke-width="1" opacity="0.9882352941176471" d="M 1001.5 416 L 1002 418.5 L 1001 418.5 L 1001.5 416 Z " /><path fill="rgb(146,50,233)" stroke="rgb(146,50,233)" stroke-width="1" opacity="0.9882352941176471" d="M 1038.5 417 L 1039 419.5 L 1038 419.5 L 1038.5 417 Z " /><path fill="rgb(146,50,233)" stroke="rgb(146,50,233)" stroke-width="1" opacity="0.9882352941176471" d="M 1665.5 418 L 1667 423.5 L 1666 424.5 L 1666 668.5 L 1664.5 670 L 1574 669.5 L 1665 669 L 1665.5 418 Z " /><path fill="rgb(146,50,233)" stroke="rgb(146,50,233)" stroke-width="1" opacity="0.9882352941176471" d="M 1752.5 418 L 1753 420.5 L 1752 420.5 L 1752.5 418 Z " /><path fill="rgb(146,50,233)" stroke="rgb(146,50,233)" stroke-width="1" opacity="0.9882352941176471" d="M 1788.5 419 L 1789 421.5 L 1788 421.5 L 1788.5 419 Z " /><path fill="rgb(146,50,233)" stroke="rgb(146,50,233)" stroke-width="1" opacity="0.9882352941176471" d="M 3489.5 419 L 3489 420.5 L 3487.5 423 L 3488 421.5 L 3489.5 419 Z " /><path fill="rgb(146,50,233)" stroke="rgb(146,50,233)" stroke-width="1" opacity="0.9882352941176471" d="M 1002.5 420 L 1003 422.5 L 1002 422.5 L 1002.5 420 Z " /><path fill="rgb(146,50,233)" stroke="rgb(146,50,233)" stroke-width="1" opacity="0.9882352941176471" d="M 1037.5 421 L 1038 423.5 L 1037 423.5 L 1037.5 421 Z " /><path fill="rgb(146,50,233)" stroke="rgb(146,50,233)" stroke-width="1" opacity="0.9882352941176471" d="M 1104.5 421 L 1105 423.5 L 1104 423.5 L 1104.5 421 Z " /><path fill="rgb(146,50,233)" stroke="rgb(146,50,233)" stroke-width="1" opacity="0.9882352941176471" d="M 1753.5 422 L 1754 424.5 L 1753 424.5 L 1753.5 422 Z " /><path fill="rgb(146,50,233)" stroke="rgb(146,50,233)" stroke-width="1" opacity="0.9882352941176471" d="M 1787.5 423 L 1788 425.5 L 1787 425.5 L 1787.5 423 Z " /><path fill="rgb(146,50,233)" stroke="rgb(146,50,233)" stroke-width="1" opacity="0.9882352941176471" d="M 916.5 424 L 917 426.5 L 916 426.5 L 916.5 424 Z " /><path fill="rgb(146,50,233)" stroke="rgb(146,50,233)" stroke-width="1" opacity="0.9882352941176471" d="M 1003.5 424 L 1004 426.5 L 1003 426.5 L 1003.5 424 Z " /><path fill="rgb(146,50,233)" stroke="rgb(146,50,233)" stroke-width="1" opacity="0.9882352941176471" d="M 3486.5 424 L 3485.5 426 L 3486.5 424 Z " /><path fill="rgb(146,50,233)" stroke="rgb(146,50,233)" stroke-width="1" opacity="0.9882352941176471" d="M 1036.5 425 L 1037 427.5 L 1036 427.5 L 1036.5 425 Z " /><path fill="rgb(146,50,233)" stroke="rgb(146,50,233)" stroke-width="1" opacity="0.9882352941176471" d="M 1667.5 426 L 1668 428.5 L 1667 428.5 L 1667.5 426 Z " /><path fill="rgb(146,50,233)" stroke="rgb(146,50,233)" stroke-width="1" opacity="0.9882352941176471" d="M 1754.5 426 L 1755 428.5 L 1754 428.5 L 1754.5 426 Z " /><path fill="rgb(146,50,233)" stroke="rgb(146,50,233)" stroke-width="1" opacity="0.9882352941176471" d="M 3484.5 427 L 3484 428.5 L 3482.5 431 L 3483 429.5 L 3484.5 427 Z " /><path fill="rgb(146,50,233)" stroke="rgb(146,50,233)" stroke-width="1" opacity="0.9882352941176471" d="M 917.5 428 L 918 430.5 L 917 430.5 L 917.5 428 Z " /><path fill="rgb(146,50,233)" stroke="rgb(146,50,233)" stroke-width="1" opacity="0.9882352941176471" d="M 1004.5 428 L 1005 430.5 L 1004 430.5 L 1004.5 428 Z " /><path fill="rgb(146,50,233)" stroke="rgb(146,50,233)" stroke-width="1" opacity="0.9882352941176471" d="M 1786.5 428 L 1787 430.5 L 1786 430.5 L 1786.5 428 Z " /><path fill="rgb(146,50,233)" stroke="rgb(146,50,233)" stroke-width="1" opacity="0.9882352941176471" d="M 1853.5 428 L 1854 430.5 L 1853 430.5 L 1853.5 428 Z " /><path fill="rgb(146,50,233)" stroke="rgb(146,50,233)" stroke-width="1" opacity="0.9882352941176471" d="M 1035.5 430 L 1036 432.5 L 1035 432.5 L 1035.5 430 Z " /><path fill="rgb(146,50,233)" stroke="rgb(146,50,233)" stroke-width="1" opacity="0.9882352941176471" d="M 1102.5 430 L 1103 432.5 L 1102 432.5 L 1102.5 430 Z " /><path fill="rgb(146,50,233)" stroke="rgb(146,50,233)" stroke-width="1" opacity="0.9882352941176471" d="M 1755.5 430 L 1756 432.5 L 1755 432.5 L 1755.5 430 Z " /><path fill="rgb(146,50,233)" stroke="rgb(146,50,233)" stroke-width="1" opacity="0.9882352941176471" d="M 1005.5 432 L 1006 434.5 L 1005 434.5 L 1005.5 432 Z " /><path fill="rgb(146,50,233)" stroke="rgb(146,50,233)" stroke-width="1" opacity="0.9882352941176471" d="M 1785.5 432 L 1786 434.5 L 1785 434.5 L 1785.5 432 Z " /><path fill="rgb(146,50,233)" stroke="rgb(146,50,233)" stroke-width="1" opacity="0.9882352941176471" d="M 3481.5 432 L 3481 433.5 L 3479.5 436 L 3480 434.5 L 3481.5 432 Z " /><path fill="rgb(146,50,233)" stroke="rgb(146,50,233)" stroke-width="1" opacity="0.9882352941176471" d="M 1034.5 434 L 1035 436.5 L 1034 436.5 L 1034.5 434 Z " /><path fill="rgb(146,50,233)" stroke="rgb(146,50,233)" stroke-width="1" opacity="0.9882352941176471" d="M 1756.5 434 L 1757 436.5 L 1756 436.5 L 1756.5 434 Z " /><path fill="rgb(146,50,233)" stroke="rgb(146,50,233)" stroke-width="1" opacity="0.9882352941176471" d="M 1006.5 436 L 1007 438.5 L 1006 438.5 L 1006.5 436 Z " /><path fill="rgb(146,50,233)" stroke="rgb(146,50,233)" stroke-width="1" opacity="0.9882352941176471" d="M 1784.5 436 L 1785 438.5 L 1784 438.5 L 1784.5 436 Z " /><path fill="rgb(146,50,233)" stroke="rgb(146,50,233)" stroke-width="1" opacity="0.9882352941176471" d="M 919.5 437 L 920 439.5 L 919 439.5 L 919.5 437 Z " /><path fill="rgb(146,50,233)" stroke="rgb(146,50,233)" stroke-width="1" opacity="0.9882352941176471" d="M 1851.5 437 L 1852 439.5 L 1851 439.5 L 1851.5 437 Z " /><path fill="rgb(146,50,233)" stroke="rgb(146,50,233)" stroke-width="1" opacity="0.9882352941176471" d="M 3478.5 437 L 3478 438.5 L 3476.5 441 L 3477 439.5 L 3478.5 437 Z " /><path fill="rgb(146,50,233)" stroke="rgb(146,50,233)" stroke-width="1" opacity="0.9882352941176471" d="M 1033.5 438 L 1034 440.5 L 1033 440.5 L 1033.5 438 Z " /><path fill="rgb(146,50,233)" stroke="rgb(146,50,233)" stroke-width="1" opacity="0.9882352941176471" d="M 1757.5 438 L 1758 440.5 L 1757 440.5 L 1757.5 438 Z " /><path fill="rgb(146,50,233)" stroke="rgb(146,50,233)" stroke-width="1" opacity="0.9882352941176471" d="M 1100.5 439 L 1101 441.5 L 1100 441.5 L 1100.5 439 Z " /><path fill="rgb(146,50,233)" stroke="rgb(146,50,233)" stroke-width="1" opacity="0.9882352941176471" d="M 1670.5 439 L 1671 441.5 L 1670 441.5 L 1670.5 439 Z " /><path fill="rgb(146,50,233)" stroke="rgb(146,50,233)" stroke-width="1" opacity="0.9882352941176471" d="M 1007.5 440 L 1008 442.5 L 1007 442.5 L 1007.5 440 Z " /><path fill="rgb(146,50,233)" stroke="rgb(146,50,233)" stroke-width="1" opacity="0.9882352941176471" d="M 1783.5 440 L 1784 442.5 L 1783 442.5 L 1783.5 440 Z " /><path fill="rgb(146,50,233)" stroke="rgb(146,50,233)" stroke-width="1" opacity="0.9882352941176471" d="M 920.5 441 L 921 443.5 L 920 443.5 L 920.5 441 Z " /><path fill="rgb(146,50,233)" stroke="rgb(146,50,233)" stroke-width="1" opacity="0.9882352941176471" d="M 1032.5 442 L 1033 444.5 L 1032 444.5 L 1032.5 442 Z " /><path fill="rgb(146,50,233)" stroke="rgb(146,50,233)" stroke-width="1" opacity="0.9882352941176471" d="M 1758.5 442 L 1759 444.5 L 1758 444.5 L 1758.5 442 Z " /><path fill="rgb(146,50,233)" stroke="rgb(146,50,233)" stroke-width="1" opacity="0.9882352941176471" d="M 3475.5 442 L 3474.5 444 L 3475.5 442 Z " /><path fill="rgb(146,50,233)" stroke="rgb(146,50,233)" stroke-width="1" opacity="0.9882352941176471" d="M 1671.5 443 L 1672 445.5 L 1671 445.5 L 1671.5 443 Z " /><path fill="rgb(146,50,233)" stroke="rgb(146,50,233)" stroke-width="1" opacity="0.9882352941176471" d="M 1008.5 444 L 1009 446.5 L 1008 446.5 L 1008.5 444 Z " /><path fill="rgb(146,50,233)" stroke="rgb(146,50,233)" stroke-width="1" opacity="0.9882352941176471" d="M 1782.5 444 L 1783 446.5 L 1782 446.5 L 1782.5 444 Z " /><path fill="rgb(146,50,233)" stroke="rgb(146,50,233)" stroke-width="1" opacity="0.9882352941176471" d="M 3473.5 445 L 3473 446.5 L 3471.5 449 L 3472 447.5 L 3473.5 445 Z " /><path fill="rgb(146,50,233)" stroke="rgb(146,50,233)" stroke-width="1" opacity="0.9882352941176471" d="M 1031.5 446 L 1032 448.5 L 1031 448.5 L 1031.5 446 Z " /><path fill="rgb(146,50,233)" stroke="rgb(146,50,233)" stroke-width="1" opacity="0.9882352941176471" d="M 1759.5 446 L 1760 448.5 L 1759 448.5 L 1759.5 446 Z " /><path fill="rgb(146,50,233)" stroke="rgb(146,50,233)" stroke-width="1" opacity="0.9882352941176471" d="M 1849.5 446 L 1850 448.5 L 1849 448.5 L 1849.5 446 Z " /><path fill="rgb(146,50,233)" stroke="rgb(146,50,233)" stroke-width="1" opacity="0.9882352941176471" d="M 3327.5 447 L 3328 454 L 3312 453.5 L 3327 453 L 3327.5 447 Z " /><path fill="rgb(146,50,233)" stroke="rgb(146,50,233)" stroke-width="1" opacity="0.9882352941176471" d="M 1009.5 448 L 1010 450.5 L 1009 450.5 L 1009.5 448 Z " /><path fill="rgb(146,50,233)" stroke="rgb(146,50,233)" stroke-width="1" opacity="0.9882352941176471" d="M 1098.5 448 L 1099 450.5 L 1098 450.5 L 1098.5 448 Z " /><path fill="rgb(146,50,233)" stroke="rgb(146,50,233)" stroke-width="1" opacity="0.9882352941176471" d="M 1781.5 448 L 1782 450.5 L 1781 450.5 L 1781.5 448 Z " /><path fill="rgb(146,50,233)" stroke="rgb(146,50,233)" stroke-width="1" opacity="0.9882352941176471" d="M 922.5 450 L 923 452.5 L 922 452.5 L 922.5 450 Z " /><path fill="rgb(146,50,233)" stroke="rgb(146,50,233)" stroke-width="1" opacity="0.9882352941176471" d="M 1030.5 450 L 1031 452.5 L 1030 452.5 L 1030.5 450 Z " /><path fill="rgb(146,50,233)" stroke="rgb(146,50,233)" stroke-width="1" opacity="0.9882352941176471" d="M 1760.5 450 L 1761 452.5 L 1760 452.5 L 1760.5 450 Z " /><path fill="rgb(146,50,233)" stroke="rgb(146,50,233)" stroke-width="1" opacity="0.9882352941176471" d="M 1010.5 452 L 1011 454.5 L 1010 454.5 L 1010.5 452 Z " /><path fill="rgb(146,50,233)" stroke="rgb(146,50,233)" stroke-width="1" opacity="0.9882352941176471" d="M 1673.5 452 L 1674 454.5 L 1673 454.5 L 1673.5 452 Z " /><path fill="rgb(146,50,233)" stroke="rgb(146,50,233)" stroke-width="1" opacity="0.9882352941176471" d="M 923.5 454 L 924 456.5 L 923 456.5 L 923.5 454 Z " /><path fill="rgb(146,50,233)" stroke="rgb(146,50,233)" stroke-width="1" opacity="0.9882352941176471" d="M 1761.5 454 L 1762 456.5 L 1761 456.5 L 1761.5 454 Z " /><path fill="rgb(146,50,233)" stroke="rgb(146,50,233)" stroke-width="1" opacity="0.9882352941176471" d="M 3292.5 454 L 3309 454.5 L 3292.5 455 L 3292.5 454 Z " /><path fill="rgb(146,50,233)" stroke="rgb(146,50,233)" stroke-width="1" opacity="0.9882352941176471" d="M 1847.5 455 L 1848 457.5 L 1847 457.5 L 1847.5 455 Z " /><path fill="rgb(146,50,233)" stroke="rgb(146,50,233)" stroke-width="1" opacity="0.9882352941176471" d="M 3273.5 455 L 3289 455.5 L 3273.5 456 L 3273.5 455 Z " /><path fill="rgb(146,50,233)" stroke="rgb(146,50,233)" stroke-width="1" opacity="0.9882352941176471" d="M 1011.5 456 L 1012 458.5 L 1011 458.5 L 1011.5 456 Z " /><path fill="rgb(146,50,233)" stroke="rgb(146,50,233)" stroke-width="1" opacity="0.9882352941176471" d="M 1674.5 456 L 1675 458.5 L 1674 458.5 L 1674.5 456 Z " /><path fill="rgb(146,50,233)" stroke="rgb(146,50,233)" stroke-width="1" opacity="0.9882352941176471" d="M 3253.5 456 L 3270 456.5 L 3253.5 457 L 3253.5 456 Z " /><path fill="rgb(146,50,233)" stroke="rgb(146,50,233)" stroke-width="1" opacity="0.9882352941176471" d="M 1096.5 457 L 1097 459.5 L 1096 459.5 L 1096.5 457 Z " /><path fill="rgb(146,50,233)" stroke="rgb(146,50,233)" stroke-width="1" opacity="0.9882352941176471" d="M 1779.5 457 L 1780 459.5 L 1779 459.5 L 1779.5 457 Z " /><path fill="rgb(146,50,233)" stroke="rgb(146,50,233)" stroke-width="1" opacity="0.9882352941176471" d="M 3234.5 457 L 3250 457.5 L 3234.5 458 L 3234.5 457 Z " /><path fill="rgb(146,50,233)" stroke="rgb(146,50,233)" stroke-width="1" opacity="0.9882352941176471" d="M 1028.5 459 L 1029 461.5 L 1028 461.5 L 1028.5 459 Z " /><path fill="rgb(146,50,233)" stroke="rgb(146,50,233)" stroke-width="1" opacity="0.9882352941176471" d="M 1012.5 460 L 1013 462.5 L 1012 462.5 L 1012.5 460 Z " /><path fill="rgb(146,50,233)" stroke="rgb(146,50,233)" stroke-width="1" opacity="0.9882352941176471" d="M 1778.5 461 L 1779 463.5 L 1778 463.5 L 1778.5 461 Z " /><path fill="rgb(146,50,233)" stroke="rgb(146,50,233)" stroke-width="1" opacity="0.9882352941176471" d="M 925.5 463 L 926 465.5 L 925 465.5 L 925.5 463 Z " /><path fill="rgb(146,50,233)" stroke="rgb(146,50,233)" stroke-width="1" opacity="0.9882352941176471" d="M 1027.5 463 L 1028 465.5 L 1027 465.5 L 1027.5 463 Z " /><path fill="rgb(146,50,233)" stroke="rgb(146,50,233)" stroke-width="1" opacity="0.9882352941176471" d="M 1013.5 464 L 1014 466.5 L 1013 466.5 L 1013.5 464 Z " /><path fill="rgb(146,50,233)" stroke="rgb(146,50,233)" stroke-width="1" opacity="0.9882352941176471" d="M 1845.5 464 L 1846 466.5 L 1845 466.5 L 1845.5 464 Z " /><path fill="rgb(146,50,233)" stroke="rgb(146,50,233)" stroke-width="1" opacity="0.9882352941176471" d="M 1676.5 465 L 1677 467.5 L 1676 467.5 L 1676.5 465 Z " /><path fill="rgb(146,50,233)" stroke="rgb(146,50,233)" stroke-width="1" opacity="0.9882352941176471" d="M 1777.5 465 L 1778 467.5 L 1777 467.5 L 1777.5 465 Z " /><path fill="rgb(146,50,233)" stroke="rgb(146,50,233)" stroke-width="1" opacity="0.9882352941176471" d="M 1094.5 466 L 1095 468.5 L 1094 468.5 L 1094.5 466 Z " /><path fill="rgb(146,50,233)" stroke="rgb(146,50,233)" stroke-width="1" opacity="0.9882352941176471" d="M 926.5 467 L 927 469.5 L 926 469.5 L 926.5 467 Z " /><path fill="rgb(146,50,233)" stroke="rgb(146,50,233)" stroke-width="1" opacity="0.9882352941176471" d="M 1026.5 467 L 1027 469.5 L 1026 469.5 L 1026.5 467 Z " /><path fill="rgb(146,50,233)" stroke="rgb(146,50,233)" stroke-width="1" opacity="0.9882352941176471" d="M 1844.5 468 L 1845 470.5 L 1844 470.5 L 1844.5 468 Z " /><path fill="rgb(146,50,233)" stroke="rgb(146,50,233)" stroke-width="1" opacity="0.9882352941176471" d="M 1677.5 469 L 1678 471.5 L 1677 471.5 L 1677.5 469 Z " /><path fill="rgb(146,50,233)" stroke="rgb(146,50,233)" stroke-width="1" opacity="0.9882352941176471" d="M 1776.5 469 L 1777 471.5 L 1776 471.5 L 1776.5 469 Z " /><path fill="rgb(146,50,233)" stroke="rgb(146,50,233)" stroke-width="1" opacity="0.9882352941176471" d="M 927.5 471 L 928 473.5 L 927 473.5 L 927.5 471 Z " /><path fill="rgb(146,50,233)" stroke="rgb(146,50,233)" stroke-width="1" opacity="0.9882352941176471" d="M 1025.5 471 L 1026 473.5 L 1025 473.5 L 1025.5 471 Z " /><path fill="rgb(146,50,233)" stroke="rgb(146,50,233)" stroke-width="1" opacity="0.9882352941176471" d="M 1678.5 473 L 1679 475.5 L 1678 475.5 L 1678.5 473 Z " /><path fill="rgb(146,50,233)" stroke="rgb(146,50,233)" stroke-width="1" opacity="0.9882352941176471" d="M 1775.5 473 L 1776 475.5 L 1775 475.5 L 1775.5 473 Z " /><path fill="rgb(146,50,233)" stroke="rgb(146,50,233)" stroke-width="1" opacity="0.9882352941176471" d="M 1843.5 473 L 1844 475.5 L 1843 475.5 L 1843.5 473 Z " /><path fill="rgb(146,50,233)" stroke="rgb(146,50,233)" stroke-width="1" opacity="0.9882352941176471" d="M 1024.5 475 L 1025 477.5 L 1024 477.5 L 1024.5 475 Z " /><path fill="rgb(146,50,233)" stroke="rgb(146,50,233)" stroke-width="1" opacity="0.9882352941176471" d="M 1092.5 475 L 1093 477.5 L 1092 477.5 L 1092.5 475 Z " /><path fill="rgb(146,50,233)" stroke="rgb(146,50,233)" stroke-width="1" opacity="0.9882352941176471" d="M 1842.5 477 L 1843 479.5 L 1842 479.5 L 1842.5 477 Z " /><path fill="rgb(146,50,233)" stroke="rgb(146,50,233)" stroke-width="1" opacity="0.9882352941176471" d="M 1679.5 478 L 1680 480.5 L 1679 480.5 L 1679.5 478 Z " /><path fill="rgb(146,50,233)" stroke="rgb(146,50,233)" stroke-width="1" opacity="0.9882352941176471" d="M 929.5 480 L 930 482.5 L 929 482.5 L 929.5 480 Z " /><path fill="rgb(146,50,233)" stroke="rgb(146,50,233)" stroke-width="1" opacity="0.9882352941176471" d="M 1091.5 480 L 1092 482.5 L 1091 482.5 L 1091.5 480 Z " /><path fill="rgb(146,50,233)" stroke="rgb(146,50,233)" stroke-width="1" opacity="0.9882352941176471" d="M 3130.5 481 L 3131 498.5 L 3130 498.5 L 3130.5 481 Z " /><path fill="rgb(146,50,233)" stroke="rgb(146,50,233)" stroke-width="1" opacity="0.9882352941176471" d="M 1680.5 482 L 1681 484.5 L 1680 484.5 L 1680.5 482 Z " /><path fill="rgb(146,50,233)" stroke="rgb(146,50,233)" stroke-width="1" opacity="0.9882352941176471" d="M 1773.5 482 L 1774 484.5 L 1773 484.5 L 1773.5 482 Z " /><path fill="rgb(146,50,233)" stroke="rgb(146,50,233)" stroke-width="1" opacity="0.9882352941176471" d="M 1841.5 482 L 1842 484.5 L 1841 484.5 L 1841.5 482 Z " /><path fill="rgb(146,50,233)" stroke="rgb(146,50,233)" stroke-width="1" opacity="0.9882352941176471" d="M 930.5 484 L 931 486.5 L 930 486.5 L 930.5 484 Z " /><path fill="rgb(146,50,233)" stroke="rgb(146,50,233)" stroke-width="1" opacity="0.9882352941176471" d="M 1090.5 484 L 1091 486.5 L 1090 486.5 L 1090.5 484 Z " /><path fill="rgb(146,50,233)" stroke="rgb(146,50,233)" stroke-width="1" opacity="0.9882352941176471" d="M 1681.5 486 L 1682 488.5 L 1681 488.5 L 1681.5 486 Z " /><path fill="rgb(146,50,233)" stroke="rgb(146,50,233)" stroke-width="1" opacity="0.9882352941176471" d="M 1772.5 486 L 1773 488.5 L 1772 488.5 L 1772.5 486 Z " /><path fill="rgb(146,50,233)" stroke="rgb(146,50,233)" stroke-width="1" opacity="0.9882352941176471" d="M 1840.5 486 L 1841 488.5 L 1840 488.5 L 1840.5 486 Z " /><path fill="rgb(146,50,233)" stroke="rgb(146,50,233)" stroke-width="1" opacity="0.9882352941176471" d="M 1021.5 488 L 1022 490.5 L 1021 490.5 L 1021.5 488 Z " /><path fill="rgb(146,50,233)" stroke="rgb(146,50,233)" stroke-width="1" opacity="0.9882352941176471" d="M 1089.5 489 L 1090 491.5 L 1089 491.5 L 1089.5 489 Z " /><path fill="rgb(146,50,233)" stroke="rgb(146,50,233)" stroke-width="1" opacity="0.9882352941176471" d="M 1770 490 Q 1773 488.8 1772 492.5 L 1770 491.5 L 1770 490 Z " /><path fill="rgb(146,50,233)" stroke="rgb(146,50,233)" stroke-width="1" opacity="0.9882352941176471" d="M 1682.5 491 L 1683 493.5 L 1682 493.5 L 1682.5 491 Z " /><path fill="rgb(146,50,233)" stroke="rgb(146,50,233)" stroke-width="1" opacity="0.9882352941176471" d="M 1839.5 491 L 1840 493.5 L 1839 493.5 L 1839.5 491 Z " /><path fill="rgb(146,50,233)" stroke="rgb(146,50,233)" stroke-width="1" opacity="0.9882352941176471" d="M 932.5 493 L 933 495.5 L 932 495.5 L 932.5 493 Z " /><path fill="rgb(146,50,233)" stroke="rgb(146,50,233)" stroke-width="1" opacity="0.9882352941176471" d="M 1088.5 493 L 1089 495.5 L 1088 495.5 L 1088.5 493 Z " /><path fill="rgb(146,50,233)" stroke="rgb(146,50,233)" stroke-width="1" opacity="0.9882352941176471" d="M 3599.5 493 L 3614 522.5 L 3613 522.5 L 3599 494.5 L 3599.5 493 Z " /><path fill="rgb(146,50,233)" stroke="rgb(146,50,233)" stroke-width="1" opacity="0.9882352941176471" d="M 1683.5 495 L 1684 497.5 L 1683 497.5 L 1683.5 495 Z " /><path fill="rgb(146,50,233)" stroke="rgb(146,50,233)" stroke-width="1" opacity="0.9882352941176471" d="M 1838.5 495 L 1839 497.5 L 1838 497.5 L 1838.5 495 Z " /><path fill="rgb(146,50,233)" stroke="rgb(146,50,233)" stroke-width="1" opacity="0.9882352941176471" d="M 933.5 497 L 934 499.5 L 933 499.5 L 933.5 497 Z " /><path fill="rgb(146,50,233)" stroke="rgb(146,50,233)" stroke-width="1" opacity="0.9882352941176471" d="M 1087.5 498 L 1088 500.5 L 1087 500.5 L 1087.5 498 Z " /><path fill="rgb(146,50,233)" stroke="rgb(146,50,233)" stroke-width="1" opacity="0.9882352941176471" d="M 1684.5 499 L 1685 501.5 L 1684 501.5 L 1684.5 499 Z " /><path fill="rgb(146,50,233)" stroke="rgb(146,50,233)" stroke-width="1" opacity="0.9882352941176471" d="M 1837.5 500 L 1838 502.5 L 1837 502.5 L 1837.5 500 Z " /><path fill="rgb(146,50,233)" stroke="rgb(146,50,233)" stroke-width="1" opacity="0.9882352941176471" d="M 3131.5 500 L 3132 519.5 L 3133 520.5 L 3133 529.5 L 3136 546.5 L 3141 560.5 L 3150.5 573 Q 3160.4 584.1 3183.5 582 Q 3198.6 578.6 3206 567.5 Q 3212 559 3215 547.5 L 3218 532.5 L 3218 525.5 L 3219.5 524 L 3226 524.5 L 3219 525 Q 3218.2 558 3200.5 575 Q 3190.5 585 3168.5 583 Q 3153 579.5 3145 568.5 L 3139 558.5 L 3135 546.5 L 3132 529.5 L 3132 520.5 L 3131 519.5 L 3131.5 500 Z " /><path fill="rgb(146,50,233)" stroke="rgb(146,50,233)" stroke-width="1" opacity="0.9882352941176471" d="M 934.5 501 L 935 503.5 L 934 503.5 L 934.5 501 Z " /><path fill="rgb(146,50,233)" stroke="rgb(146,50,233)" stroke-width="1" opacity="0.9882352941176471" d="M 1086.5 502 L 1087 504.5 L 1086 504.5 L 1086.5 502 Z " /><path fill="rgb(146,50,233)" stroke="rgb(146,50,233)" stroke-width="1" opacity="0.9882352941176471" d="M 1836.5 504 L 1837 506.5 L 1836 506.5 L 1836.5 504 Z " /><path fill="rgb(146,50,233)" stroke="rgb(146,50,233)" stroke-width="1" opacity="0.9882352941176471" d="M 935.5 506 L 936 508.5 L 935 508.5 L 935.5 506 Z " /><path fill="rgb(146,50,233)" stroke="rgb(146,50,233)" stroke-width="1" opacity="0.9882352941176471" d="M 1085.5 507 L 1086 509.5 L 1085 509.5 L 1085.5 507 Z " /><path fill="rgb(146,50,233)" stroke="rgb(146,50,233)" stroke-width="1" opacity="0.9882352941176471" d="M 1686.5 508 L 1687 510.5 L 1686 510.5 L 1686.5 508 Z " /><path fill="rgb(146,50,233)" stroke="rgb(146,50,233)" stroke-width="1" opacity="0.9882352941176471" d="M 1835.5 509 L 1836 511.5 L 1835 511.5 L 1835.5 509 Z " /><path fill="rgb(146,50,233)" stroke="rgb(146,50,233)" stroke-width="1" opacity="0.9882352941176471" d="M 936.5 510 L 937 512.5 L 936 512.5 L 936.5 510 Z " /><path fill="rgb(146,50,233)" stroke="rgb(146,50,233)" stroke-width="1" opacity="0.9882352941176471" d="M 1084.5 511 L 1085 513.5 L 1084 513.5 L 1084.5 511 Z " /><path fill="rgb(146,50,233)" stroke="rgb(146,50,233)" stroke-width="1" opacity="0.9882352941176471" d="M 1687.5 512 L 1688 514.5 L 1687 514.5 L 1687.5 512 Z " /><path fill="rgb(146,50,233)" stroke="rgb(146,50,233)" stroke-width="1" opacity="0.9882352941176471" d="M 1834.5 513 L 1835 515.5 L 1834 515.5 L 1834.5 513 Z " /><path fill="rgb(146,50,233)" stroke="rgb(146,50,233)" stroke-width="1" opacity="0.9882352941176471" d="M 937.5 514 L 938 516.5 L 937 516.5 L 937.5 514 Z " /><path fill="rgb(146,50,233)" stroke="rgb(146,50,233)" stroke-width="1" opacity="0.9882352941176471" d="M 1083.5 515 L 1084 518.5 L 1083 518.5 L 1083.5 515 Z " /><path fill="rgb(146,50,233)" stroke="rgb(146,50,233)" stroke-width="1" opacity="0.9882352941176471" d="M 1688.5 516 L 1689 518.5 L 1688 518.5 L 1688.5 516 Z " /><path fill="rgb(146,50,233)" stroke="rgb(146,50,233)" stroke-width="1" opacity="0.9882352941176471" d="M 1105.5 518 L 1106 669 L 1216 669.5 L 1105 670 L 1105.5 518 Z " /><path fill="rgb(146,50,233)" stroke="rgb(146,50,233)" stroke-width="1" opacity="0.9882352941176471" d="M 1833.5 518 L 1834 520.5 L 1833 520.5 L 1833.5 518 Z " /><path fill="rgb(146,50,233)" stroke="rgb(146,50,233)" stroke-width="1" opacity="0.9882352941176471" d="M 938.5 519 L 939 521.5 L 938 521.5 L 938.5 519 Z " /><path fill="rgb(146,50,233)" stroke="rgb(146,50,233)" stroke-width="1" opacity="0.9882352941176471" d="M 1082.5 520 L 1083 522.5 L 1082 522.5 L 1082.5 520 Z " /><path fill="rgb(146,50,233)" stroke="rgb(146,50,233)" stroke-width="1" opacity="0.9882352941176471" d="M 1689.5 521 L 1690 523.5 L 1689 523.5 L 1689.5 521 Z " /><path fill="rgb(146,50,233)" stroke="rgb(146,50,233)" stroke-width="1" opacity="0.9882352941176471" d="M 1832.5 522 L 1833 524.5 L 1832 524.5 L 1832.5 522 Z " /><path fill="rgb(146,50,233)" stroke="rgb(146,50,233)" stroke-width="1" opacity="0.9882352941176471" d="M 939.5 523 L 940 525.5 L 939 525.5 L 939.5 523 Z " /><path fill="rgb(146,50,233)" stroke="rgb(146,50,233)" stroke-width="1" opacity="0.9882352941176471" d="M 1081.5 524 L 1082 527.5 L 1081 527.5 L 1081.5 524 Z " /><path fill="rgb(146,50,233)" stroke="rgb(146,50,233)" stroke-width="1" opacity="0.9882352941176471" d="M 3614.5 524 L 3629 553.5 L 3628 553.5 L 3614 525.5 L 3614.5 524 Z " /><path fill="rgb(146,50,233)" stroke="rgb(146,50,233)" stroke-width="1" opacity="0.9882352941176471" d="M 1690.5 525 L 1691 527.5 L 1690 527.5 L 1690.5 525 Z " /><path fill="rgb(146,50,233)" stroke="rgb(146,50,233)" stroke-width="1" opacity="0.9882352941176471" d="M 3228.5 525 L 3243 525.5 L 3228.5 526 L 3228.5 525 Z " /><path fill="rgb(146,50,233)" stroke="rgb(146,50,233)" stroke-width="1" opacity="0.9882352941176471" d="M 3245.5 526 L 3260 526.5 L 3245.5 527 L 3245.5 526 Z " /><path fill="rgb(146,50,233)" stroke="rgb(146,50,233)" stroke-width="1" opacity="0.9882352941176471" d="M 940.5 527 L 941 529.5 L 940 529.5 L 940.5 527 Z " /><path fill="rgb(146,50,233)" stroke="rgb(146,50,233)" stroke-width="1" opacity="0.9882352941176471" d="M 1831.5 527 L 1832 529.5 L 1831 529.5 L 1831.5 527 Z " /><path fill="rgb(146,50,233)" stroke="rgb(146,50,233)" stroke-width="1" opacity="0.9882352941176471" d="M 3263.5 527 L 3277 527.5 L 3263.5 528 L 3263.5 527 Z " /><path fill="rgb(146,50,233)" stroke="rgb(146,50,233)" stroke-width="1" opacity="0.9882352941176471" d="M 3280.5 528 L 3294 528.5 L 3280.5 529 L 3280.5 528 Z " /><path fill="rgb(146,50,233)" stroke="rgb(146,50,233)" stroke-width="1" opacity="0.9882352941176471" d="M 1080.5 529 L 1081 531.5 L 1080 531.5 L 1080.5 529 Z " /><path fill="rgb(146,50,233)" stroke="rgb(146,50,233)" stroke-width="1" opacity="0.9882352941176471" d="M 1691.5 529 L 1692 531.5 L 1691 531.5 L 1691.5 529 Z " /><path fill="rgb(146,50,233)" stroke="rgb(146,50,233)" stroke-width="1" opacity="0.9882352941176471" d="M 3297.5 529 L 3311 529.5 L 3297.5 530 L 3297.5 529 Z " /><path fill="rgb(146,50,233)" stroke="rgb(146,50,233)" stroke-width="1" opacity="0.9882352941176471" d="M 3314.5 530 L 3328 530 L 3328 535.5 L 3327 535.5 L 3327 531 L 3314.5 531 L 3314.5 530 Z " /><path fill="rgb(146,50,233)" stroke="rgb(146,50,233)" stroke-width="1" opacity="0.9882352941176471" d="M 941.5 531 L 942 534.5 L 941 534.5 L 941.5 531 Z " /><path fill="rgb(146,50,233)" stroke="rgb(146,50,233)" stroke-width="1" opacity="0.9882352941176471" d="M 1830.5 531 L 1831 534.5 L 1830 534.5 L 1830.5 531 Z " /><path fill="rgb(146,50,233)" stroke="rgb(146,50,233)" stroke-width="1" opacity="0.9882352941176471" d="M 1079.5 533 L 1080 536.5 L 1079 536.5 L 1079.5 533 Z " /><path fill="rgb(146,50,233)" stroke="rgb(146,50,233)" stroke-width="1" opacity="0.9882352941176471" d="M 1692.5 534 L 1693 536.5 L 1692 536.5 L 1692.5 534 Z " /><path fill="rgb(146,50,233)" stroke="rgb(146,50,233)" stroke-width="1" opacity="0.9882352941176471" d="M 942.5 536 L 943 538.5 L 942 538.5 L 942.5 536 Z " /><path fill="rgb(146,50,233)" stroke="rgb(146,50,233)" stroke-width="1" opacity="0.9882352941176471" d="M 1829.5 536 L 1830 538.5 L 1829 538.5 L 1829.5 536 Z " /><path fill="rgb(146,50,233)" stroke="rgb(146,50,233)" stroke-width="1" opacity="0.9882352941176471" d="M 3499.5 536 L 3501 539.5 L 3500 539.5 L 3499.5 538 L 3470 583.5 L 3470 668.5 L 3468.5 670 L 3357 669.5 L 3469 669 L 3469 583.5 L 3499.5 536 Z " /><path fill="rgb(146,50,233)" stroke="rgb(146,50,233)" stroke-width="1" opacity="0.9882352941176471" d="M 3326.5 537 L 3327 542.5 L 3326 542.5 L 3326.5 537 Z " /><path fill="rgb(146,50,233)" stroke="rgb(146,50,233)" stroke-width="1" opacity="0.9882352941176471" d="M 1078.5 538 L 1079 540.5 L 1078 540.5 L 1078.5 538 Z " /><path fill="rgb(146,50,233)" stroke="rgb(146,50,233)" stroke-width="1" opacity="0.9882352941176471" d="M 1693.5 538 L 1694 540.5 L 1693 540.5 L 1693.5 538 Z " /><path fill="rgb(146,50,233)" stroke="rgb(146,50,233)" stroke-width="1" opacity="0.9882352941176471" d="M 943.5 540 L 944 542.5 L 943 542.5 L 943.5 540 Z " /><path fill="rgb(146,50,233)" stroke="rgb(146,50,233)" stroke-width="1" opacity="0.9882352941176471" d="M 1828.5 540 L 1829 543.5 L 1828 543.5 L 1828.5 540 Z " /><path fill="rgb(146,50,233)" stroke="rgb(146,50,233)" stroke-width="1" opacity="0.9882352941176471" d="M 1077.5 542 L 1078 545.5 L 1077 545.5 L 1077.5 542 Z " /><path fill="rgb(146,50,233)" stroke="rgb(146,50,233)" stroke-width="1" opacity="0.9882352941176471" d="M 1694.5 542 L 1695 544.5 L 1694 544.5 L 1694.5 542 Z " /><path fill="rgb(146,50,233)" stroke="rgb(146,50,233)" stroke-width="1" opacity="0.9882352941176471" d="M 3502.5 543 L 3505 548.5 L 3504 548.5 L 3502.5 543 Z " /><path fill="rgb(146,50,233)" stroke="rgb(146,50,233)" stroke-width="1" opacity="0.9882352941176471" d="M 944.5 544 L 945 547.5 L 944 547.5 L 944.5 544 Z " /><path fill="rgb(146,50,233)" stroke="rgb(146,50,233)" stroke-width="1" opacity="0.9882352941176471" d="M 3325.5 544 L 3326 549.5 L 3318 580.5 L 3306 606.5 Q 3294 626.5 3276.5 641 Q 3254.1 659.6 3222.5 669 L 3195.5 674 L 3162.5 675 L 3161.5 674 L 3151 673.5 L 3161.5 673 L 3162.5 674 L 3183.5 674 L 3184.5 673 L 3195.5 673 L 3196.5 672 L 3204.5 672 L 3214.5 670 L 3239.5 662 Q 3270.5 649 3291 625.5 Q 3318.2 594.7 3325.5 544 Z " /><path fill="rgb(146,50,233)" stroke="rgb(146,50,233)" stroke-width="1" opacity="0.9882352941176471" d="M 1827.5 545 L 1828 547.5 L 1827 547.5 L 1827.5 545 Z " /><path fill="rgb(146,50,233)" stroke="rgb(146,50,233)" stroke-width="1" opacity="0.9882352941176471" d="M 1695.5 546 L 1696 549.5 L 1695 549.5 L 1695.5 546 Z " /><path fill="rgb(146,50,233)" stroke="rgb(146,50,233)" stroke-width="1" opacity="0.9882352941176471" d="M 1076.5 547 L 1077 549.5 L 1076 549.5 L 1076.5 547 Z " /><path fill="rgb(146,50,233)" stroke="rgb(146,50,233)" stroke-width="1" opacity="0.9882352941176471" d="M 945.5 549 L 946 551.5 L 945 551.5 L 945.5 549 Z " /><path fill="rgb(146,50,233)" stroke="rgb(146,50,233)" stroke-width="1" opacity="0.9882352941176471" d="M 1826.5 549 L 1827 552.5 L 1826 552.5 L 1826.5 549 Z " /><path fill="rgb(146,50,233)" stroke="rgb(146,50,233)" stroke-width="1" opacity="0.9882352941176471" d="M 3505.5 550 L 3509 557.5 L 3508 557.5 L 3505.5 550 Z " /><path fill="rgb(146,50,233)" stroke="rgb(146,50,233)" stroke-width="1" opacity="0.9882352941176471" d="M 1075.5 551 L 1076 554.5 L 1075 554.5 L 1075.5 551 Z " /><path fill="rgb(146,50,233)" stroke="rgb(146,50,233)" stroke-width="1" opacity="0.9882352941176471" d="M 1696.5 551 L 1697 553.5 L 1696 553.5 L 1696.5 551 Z " /><path fill="rgb(146,50,233)" stroke="rgb(146,50,233)" stroke-width="1" opacity="0.9882352941176471" d="M 946.5 553 L 947 555.5 L 946 555.5 L 946.5 553 Z " /><path fill="rgb(146,50,233)" stroke="rgb(146,50,233)" stroke-width="1" opacity="0.9882352941176471" d="M 1825.5 554 L 1826 556.5 L 1825 556.5 L 1825.5 554 Z " /><path fill="rgb(146,50,233)" stroke="rgb(146,50,233)" stroke-width="1" opacity="0.9882352941176471" d="M 1697.5 555 L 1698 557.5 L 1697 557.5 L 1697.5 555 Z " /><path fill="rgb(146,50,233)" stroke="rgb(146,50,233)" stroke-width="1" opacity="0.9882352941176471" d="M 1074.5 556 L 1075 558.5 L 1074 558.5 L 1074.5 556 Z " /><path fill="rgb(146,50,233)" stroke="rgb(146,50,233)" stroke-width="1" opacity="0.9882352941176471" d="M 947.5 557 L 948 560.5 L 947 560.5 L 947.5 557 Z " /><path fill="rgb(146,50,233)" stroke="rgb(146,50,233)" stroke-width="1" opacity="0.9882352941176471" d="M 3630.5 557 L 3644 584.5 L 3643 584.5 L 3630 558.5 L 3630.5 557 Z " /><path fill="rgb(146,50,233)" stroke="rgb(146,50,233)" stroke-width="1" opacity="0.9882352941176471" d="M 1824.5 558 L 1825 561.5 L 1824 561.5 L 1824.5 558 Z " /><path fill="rgb(146,50,233)" stroke="rgb(146,50,233)" stroke-width="1" opacity="0.9882352941176471" d="M 1698.5 559 L 1699 562.5 L 1698 562.5 L 1698.5 559 Z " /><path fill="rgb(146,50,233)" stroke="rgb(146,50,233)" stroke-width="1" opacity="0.9882352941176471" d="M 3509.5 559 L 3512 564.5 L 3511 564.5 L 3509.5 559 Z " /><path fill="rgb(146,50,233)" stroke="rgb(146,50,233)" stroke-width="1" opacity="0.9882352941176471" d="M 1073.5 560 L 1074 563.5 L 1073 563.5 L 1073.5 560 Z " /><path fill="rgb(146,50,233)" stroke="rgb(146,50,233)" stroke-width="1" opacity="0.9882352941176471" d="M 948.5 562 L 949 564.5 L 948 564.5 L 948.5 562 Z " /><path fill="rgb(146,50,233)" stroke="rgb(146,50,233)" stroke-width="1" opacity="0.9882352941176471" d="M 1823.5 563 L 1824 565.5 L 1823 565.5 L 1823.5 563 Z " /><path fill="rgb(146,50,233)" stroke="rgb(146,50,233)" stroke-width="1" opacity="0.9882352941176471" d="M 1699.5 564 L 1700 566.5 L 1699 566.5 L 1699.5 564 Z " /><path fill="rgb(146,50,233)" stroke="rgb(146,50,233)" stroke-width="1" opacity="0.9882352941176471" d="M 1072.5 565 L 1073 567.5 L 1072 567.5 L 1072.5 565 Z " /><path fill="rgb(146,50,233)" stroke="rgb(146,50,233)" stroke-width="1" opacity="0.9882352941176471" d="M 949.5 566 L 950 568.5 L 949 568.5 L 949.5 566 Z " /><path fill="rgb(146,50,233)" stroke="rgb(146,50,233)" stroke-width="1" opacity="0.9882352941176471" d="M 1822.5 567 L 1823 570.5 L 1822 570.5 L 1822.5 567 Z " /><path fill="rgb(146,50,233)" stroke="rgb(146,50,233)" stroke-width="1" opacity="0.9882352941176471" d="M 1700.5 568 L 1701 570.5 L 1700 570.5 L 1700.5 568 Z " /><path fill="rgb(146,50,233)" stroke="rgb(146,50,233)" stroke-width="1" opacity="0.9882352941176471" d="M 3513.5 568 L 3516 573.5 L 3515 573.5 L 3513.5 568 Z " /><path fill="rgb(146,50,233)" stroke="rgb(146,50,233)" stroke-width="1" opacity="0.9882352941176471" d="M 1071.5 569 L 1072 572.5 L 1071 572.5 L 1071.5 569 Z " /><path fill="rgb(146,50,233)" stroke="rgb(146,50,233)" stroke-width="1" opacity="0.9882352941176471" d="M 950.5 570 L 951 572.5 L 950 572.5 L 950.5 570 Z " /><path fill="rgb(146,50,233)" stroke="rgb(146,50,233)" stroke-width="1" opacity="0.9882352941176471" d="M 1701.5 572 L 1703 579.5 L 1702 579.5 L 1701.5 572 Z " /><path fill="rgb(146,50,233)" stroke="rgb(146,50,233)" stroke-width="1" opacity="0.9882352941176471" d="M 1821.5 572 L 1822 574.5 L 1821 574.5 L 1821.5 572 Z " /><path fill="rgb(146,50,233)" stroke="rgb(146,50,233)" stroke-width="1" opacity="0.9882352941176471" d="M 951.5 574 L 952 577.5 L 951 577.5 L 951.5 574 Z " /><path fill="rgb(146,50,233)" stroke="rgb(146,50,233)" stroke-width="1" opacity="0.9882352941176471" d="M 1070.5 574 L 1071 576.5 L 1070 576.5 L 1070.5 574 Z " /><path fill="rgb(146,50,233)" stroke="rgb(146,50,233)" stroke-width="1" opacity="0.9882352941176471" d="M 3516.5 575 L 3520 582.5 L 3519 582.5 L 3516.5 575 Z " /><path fill="rgb(146,50,233)" stroke="rgb(146,50,233)" stroke-width="1" opacity="0.9882352941176471" d="M 1820.5 576 L 1821 579.5 L 1820 579.5 L 1820.5 576 Z " /><path fill="rgb(146,50,233)" stroke="rgb(146,50,233)" stroke-width="1" opacity="0.9882352941176471" d="M 1069.5 578 L 1070 581.5 L 1069 581.5 L 1069.5 578 Z " /><path fill="rgb(146,50,233)" stroke="rgb(146,50,233)" stroke-width="1" opacity="0.9882352941176471" d="M 952.5 579 L 953 581.5 L 952 581.5 L 952.5 579 Z " /><path fill="rgb(146,50,233)" stroke="rgb(146,50,233)" stroke-width="1" opacity="0.9882352941176471" d="M 1703.5 581 L 1704 583.5 L 1703 583.5 L 1703.5 581 Z " /><path fill="rgb(146,50,233)" stroke="rgb(146,50,233)" stroke-width="1" opacity="0.9882352941176471" d="M 1819.5 581 L 1820 583.5 L 1819 583.5 L 1819.5 581 Z " /><path fill="rgb(146,50,233)" stroke="rgb(146,50,233)" stroke-width="1" opacity="0.9882352941176471" d="M 953.5 583 L 954 585.5 L 953 585.5 L 953.5 583 Z " /><path fill="rgb(146,50,233)" stroke="rgb(146,50,233)" stroke-width="1" opacity="0.9882352941176471" d="M 1068.5 583 L 1069 585.5 L 1068 585.5 L 1068.5 583 Z " /><path fill="rgb(146,50,233)" stroke="rgb(146,50,233)" stroke-width="1" opacity="0.9882352941176471" d="M 3520.5 584 L 3523 589.5 L 3522 589.5 L 3520.5 584 Z " /><path fill="rgb(146,50,233)" stroke="rgb(146,50,233)" stroke-width="1" opacity="0.9882352941176471" d="M 1704.5 585 L 1705 587.5 L 1704 587.5 L 1704.5 585 Z " /><path fill="rgb(146,50,233)" stroke="rgb(146,50,233)" stroke-width="1" opacity="0.9882352941176471" d="M 1818.5 585 L 1819 588.5 L 1818 588.5 L 1818.5 585 Z " /><path fill="rgb(146,50,233)" stroke="rgb(146,50,233)" stroke-width="1" opacity="0.9882352941176471" d="M 954.5 587 L 955 590.5 L 954 590.5 L 954.5 587 Z " /><path fill="rgb(146,50,233)" stroke="rgb(146,50,233)" stroke-width="1" opacity="0.9882352941176471" d="M 1067.5 587 L 1068 590.5 L 1067 590.5 L 1067.5 587 Z " /><path fill="rgb(146,50,233)" stroke="rgb(146,50,233)" stroke-width="1" opacity="0.9882352941176471" d="M 1705.5 589 L 1706 592.5 L 1705 592.5 L 1705.5 589 Z " /><path fill="rgb(146,50,233)" stroke="rgb(146,50,233)" stroke-width="1" opacity="0.9882352941176471" d="M 1817.5 590 L 1818 592.5 L 1817 592.5 L 1817.5 590 Z " /><path fill="rgb(146,50,233)" stroke="rgb(146,50,233)" stroke-width="1" opacity="0.9882352941176471" d="M 3646.5 590 L 3659 615.5 L 3658 615.5 L 3646 591.5 L 3646.5 590 Z " /><path fill="rgb(146,50,233)" stroke="rgb(146,50,233)" stroke-width="1" opacity="0.9882352941176471" d="M 3523.5 591 L 3527 598.5 L 3526 598.5 L 3523.5 591 Z " /><path fill="rgb(146,50,233)" stroke="rgb(146,50,233)" stroke-width="1" opacity="0.9882352941176471" d="M 955.5 592 L 956 594.5 L 955 594.5 L 955.5 592 Z " /><path fill="rgb(146,50,233)" stroke="rgb(146,50,233)" stroke-width="1" opacity="0.9882352941176471" d="M 1066.5 592 L 1067 594.5 L 1066 594.5 L 1066.5 592 Z " /><path fill="rgb(146,50,233)" stroke="rgb(146,50,233)" stroke-width="1" opacity="0.9882352941176471" d="M 1706.5 594 L 1707 596.5 L 1706 596.5 L 1706.5 594 Z " /><path fill="rgb(146,50,233)" stroke="rgb(146,50,233)" stroke-width="1" opacity="0.9882352941176471" d="M 1816.5 594 L 1817 597.5 L 1816 597.5 L 1816.5 594 Z " /><path fill="rgb(146,50,233)" stroke="rgb(146,50,233)" stroke-width="1" opacity="0.9882352941176471" d="M 956.5 596 L 957 598.5 L 956 598.5 L 956.5 596 Z " /><path fill="rgb(146,50,233)" stroke="rgb(146,50,233)" stroke-width="1" opacity="0.9882352941176471" d="M 1065.5 596 L 1066 599.5 L 1065 599.5 L 1065.5 596 Z " /><path fill="rgb(146,50,233)" stroke="rgb(146,50,233)" stroke-width="1" opacity="0.9882352941176471" d="M 1707.5 598 L 1708 600.5 L 1707 600.5 L 1707.5 598 Z " /><path fill="rgb(146,50,233)" stroke="rgb(146,50,233)" stroke-width="1" opacity="0.9882352941176471" d="M 1815.5 599 L 1816 601.5 L 1815 601.5 L 1815.5 599 Z " /><path fill="rgb(146,50,233)" stroke="rgb(146,50,233)" stroke-width="1" opacity="0.9882352941176471" d="M 957.5 600 L 959 607.5 L 958 607.5 L 957.5 600 Z " /><path fill="rgb(146,50,233)" stroke="rgb(146,50,233)" stroke-width="1" opacity="0.9882352941176471" d="M 3527.5 600 L 3531 607.5 L 3530 607.5 L 3527.5 600 Z " /><path fill="rgb(146,50,233)" stroke="rgb(146,50,233)" stroke-width="1" opacity="0.9882352941176471" d="M 1064.5 601 L 1065 603.5 L 1064 603.5 L 1064.5 601 Z " /><path fill="rgb(146,50,233)" stroke="rgb(146,50,233)" stroke-width="1" opacity="0.9882352941176471" d="M 1708.5 602 L 1709 605.5 L 1708 605.5 L 1708.5 602 Z " /><path fill="rgb(146,50,233)" stroke="rgb(146,50,233)" stroke-width="1" opacity="0.9882352941176471" d="M 1814.5 603 L 1815 606.5 L 1814 606.5 L 1814.5 603 Z " /><path fill="rgb(146,50,233)" stroke="rgb(146,50,233)" stroke-width="1" opacity="0.9882352941176471" d="M 1063.5 605 L 1064 608.5 L 1063 608.5 L 1063.5 605 Z " /><path fill="rgb(146,50,233)" stroke="rgb(146,50,233)" stroke-width="1" opacity="0.9882352941176471" d="M 1709.5 607 L 1710 609.5 L 1709 609.5 L 1709.5 607 Z " /><path fill="rgb(146,50,233)" stroke="rgb(146,50,233)" stroke-width="1" opacity="0.9882352941176471" d="M 1813.5 608 L 1814 610.5 L 1813 610.5 L 1813.5 608 Z " /><path fill="rgb(146,50,233)" stroke="rgb(146,50,233)" stroke-width="1" opacity="0.9882352941176471" d="M 959.5 609 L 960 611.5 L 959 611.5 L 959.5 609 Z " /><path fill="rgb(146,50,233)" stroke="rgb(146,50,233)" stroke-width="1" opacity="0.9882352941176471" d="M 3531.5 609 L 3538 623.5 L 3537 623.5 L 3531 610.5 L 3531.5 609 Z " /><path fill="rgb(146,50,233)" stroke="rgb(146,50,233)" stroke-width="1" opacity="0.9882352941176471" d="M 1062.5 610 L 1063 612.5 L 1062 612.5 L 1062.5 610 Z " /><path fill="rgb(146,50,233)" stroke="rgb(146,50,233)" stroke-width="1" opacity="0.9882352941176471" d="M 1710.5 611 L 1711 613.5 L 1710 613.5 L 1710.5 611 Z " /><path fill="rgb(146,50,233)" stroke="rgb(146,50,233)" stroke-width="1" opacity="0.9882352941176471" d="M 1812.5 612 L 1813 615.5 L 1811.5 620 L 1811 616.5 L 1812.5 612 Z " /><path fill="rgb(146,50,233)" stroke="rgb(146,50,233)" stroke-width="1" opacity="0.9882352941176471" d="M 960.5 613 L 962 620.5 L 961 620.5 L 960.5 613 Z " /><path fill="rgb(146,50,233)" stroke="rgb(146,50,233)" stroke-width="1" opacity="0.9882352941176471" d="M 1061.5 614 L 1062 617.5 L 1061 617.5 L 1061.5 614 Z " /><path fill="rgb(146,50,233)" stroke="rgb(146,50,233)" stroke-width="1" opacity="0.9882352941176471" d="M 1711.5 615 L 1713 622.5 L 1712 622.5 L 1711.5 615 Z " /><path fill="rgb(146,50,233)" stroke="rgb(146,50,233)" stroke-width="1" opacity="0.9882352941176471" d="M 1060.5 619 L 1061 621.5 L 1060 621.5 L 1060.5 619 Z " /><path fill="rgb(146,50,233)" stroke="rgb(146,50,233)" stroke-width="1" opacity="0.9882352941176471" d="M 1810.5 621 L 1811 624.5 L 1809.5 629 L 1809 625.5 L 1810.5 621 Z " /><path fill="rgb(146,50,233)" stroke="rgb(146,50,233)" stroke-width="1" opacity="0.9882352941176471" d="M 962.5 622 L 963 624.5 L 962 624.5 L 962.5 622 Z " /><path fill="rgb(146,50,233)" stroke="rgb(146,50,233)" stroke-width="1" opacity="0.9882352941176471" d="M 1059.5 623 L 1060 626.5 L 1059 626.5 L 1059.5 623 Z " /><path fill="rgb(146,50,233)" stroke="rgb(146,50,233)" stroke-width="1" opacity="0.9882352941176471" d="M 3662.5 623 L 3674 646.5 L 3673 646.5 L 3662 624.5 L 3662.5 623 Z " /><path fill="rgb(146,50,233)" stroke="rgb(146,50,233)" stroke-width="1" opacity="0.9882352941176471" d="M 1713.5 624 L 1714 626.5 L 1713 626.5 L 1713.5 624 Z " /><path fill="rgb(146,50,233)" stroke="rgb(146,50,233)" stroke-width="1" opacity="0.9882352941176471" d="M 3538.5 625 L 3549 648.5 L 3548 648.5 L 3538 626.5 L 3538.5 625 Z " /><path fill="rgb(146,50,233)" stroke="rgb(146,50,233)" stroke-width="1" opacity="0.9882352941176471" d="M 963.5 626 L 966 637.5 L 965 637.5 L 963.5 626 Z " /><path fill="rgb(146,50,233)" stroke="rgb(146,50,233)" stroke-width="1" opacity="0.9882352941176471" d="M 1058.5 628 L 1059 630.5 L 1058 630.5 L 1058.5 628 Z " /><path fill="rgb(146,50,233)" stroke="rgb(146,50,233)" stroke-width="1" opacity="0.9882352941176471" d="M 1714.5 628 L 1716 635.5 L 1715 635.5 L 1714.5 628 Z " /><path fill="rgb(146,50,233)" stroke="rgb(146,50,233)" stroke-width="1" opacity="0.9882352941176471" d="M 1808.5 630 L 1809 633.5 L 1807.5 638 L 1807 634.5 L 1808.5 630 Z " /><path fill="rgb(146,50,233)" stroke="rgb(146,50,233)" stroke-width="1" opacity="0.9882352941176471" d="M 1057.5 632 L 1058 635.5 L 1057 635.5 L 1057.5 632 Z " /><path fill="rgb(146,50,233)" stroke="rgb(146,50,233)" stroke-width="1" opacity="0.9882352941176471" d="M 1056.5 637 L 1057 639.5 L 1056 639.5 L 1056.5 637 Z " /><path fill="rgb(146,50,233)" stroke="rgb(146,50,233)" stroke-width="1" opacity="0.9882352941176471" d="M 1716.5 637 L 1717 639.5 L 1716 639.5 L 1716.5 637 Z " /><path fill="rgb(146,50,233)" stroke="rgb(146,50,233)" stroke-width="1" opacity="0.9882352941176471" d="M 966.5 639 L 969 650.5 L 968 650.5 L 966.5 639 Z " /><path fill="rgb(146,50,233)" stroke="rgb(146,50,233)" stroke-width="1" opacity="0.9882352941176471" d="M 1806.5 639 L 1807 642.5 L 1805.5 647 L 1805 643.5 L 1806.5 639 Z " /><path fill="rgb(146,50,233)" stroke="rgb(146,50,233)" stroke-width="1" opacity="0.9882352941176471" d="M 1055.5 641 L 1056 644.5 L 1055 644.5 L 1055.5 641 Z " /><path fill="rgb(146,50,233)" stroke="rgb(146,50,233)" stroke-width="1" opacity="0.9882352941176471" d="M 1717.5 641 L 1720 652.5 L 1719 652.5 L 1717.5 641 Z " /><path fill="rgb(146,50,233)" stroke="rgb(146,50,233)" stroke-width="1" opacity="0.9882352941176471" d="M 1054.5 646 L 1055 648.5 L 1054 648.5 L 1054.5 646 Z " /><path fill="rgb(146,50,233)" stroke="rgb(146,50,233)" stroke-width="1" opacity="0.9882352941176471" d="M 1804.5 648 L 1805 651.5 L 1803.5 656 L 1803 652.5 L 1804.5 648 Z " /><path fill="rgb(146,50,233)" stroke="rgb(146,50,233)" stroke-width="1" opacity="0.9882352941176471" d="M 1053.5 650 L 1054 653.5 L 1053 653.5 L 1053.5 650 Z " /><path fill="rgb(146,50,233)" stroke="rgb(146,50,233)" stroke-width="1" opacity="0.9882352941176471" d="M 3549.5 650 L 3558.5 669 L 3684 668.5 L 3677 654.5 L 3678 654.5 L 3685 668.5 L 3683.5 670 L 3558.5 670 L 3556 667.5 L 3549 651.5 L 3549.5 650 Z " /><path fill="rgb(146,50,233)" stroke="rgb(146,50,233)" stroke-width="1" opacity="0.9882352941176471" d="M 969.5 652 L 970 654.5 L 969 654.5 L 969.5 652 Z " /><path fill="rgb(146,50,233)" stroke="rgb(146,50,233)" stroke-width="1" opacity="0.9882352941176471" d="M 1720.5 654 L 1723 665.5 L 1722 665.5 L 1720.5 654 Z " /><path fill="rgb(146,50,233)" stroke="rgb(146,50,233)" stroke-width="1" opacity="0.9882352941176471" d="M 1052.5 655 L 1053 658.5 L 1050 670 L 973 669.5 L 1048.5 669 L 1050 667.5 L 1052.5 655 Z " /><path fill="rgb(146,50,233)" stroke="rgb(146,50,233)" stroke-width="1" opacity="0.9882352941176471" d="M 970.5 656 L 972 663.5 L 971 663.5 L 970.5 656 Z " /><path fill="rgb(146,50,233)" stroke="rgb(146,50,233)" stroke-width="1" opacity="0.9882352941176471" d="M 1802.5 657 L 1803 660.5 L 1801.5 665 L 1801 661.5 L 1802.5 657 Z " /><path fill="rgb(146,50,233)" stroke="rgb(146,50,233)" stroke-width="1" opacity="0.9882352941176471" d="M 972.5 665 L 973 667.5 L 972 667.5 L 972.5 665 Z " /><path fill="rgb(146,50,233)" stroke="rgb(146,50,233)" stroke-width="1" opacity="0.9882352941176471" d="M 1800.5 666 L 1801 668.5 L 1799.5 670 L 1724.5 670 L 1723 667.5 L 1724 667.5 L 1724.5 669 L 1800 669 L 1800.5 666 Z " /><path fill="rgb(146,50,233)" stroke="rgb(146,50,233)" stroke-width="1" opacity="0.9882352941176471" d="M 2473.5 668 L 2493 668.5 L 2473.5 669 L 2473.5 668 Z " /><path fill="rgb(146,50,233)" stroke="rgb(146,50,233)" stroke-width="1" opacity="0.9882352941176471" d="M 1267.5 669 L 1542 669.5 L 1267.5 670 L 1267.5 669 Z " /><path fill="rgb(147,51,234)" stroke="rgb(147,51,234)" stroke-width="1" opacity="1" d="M 269 273 L 272 273.5 L 272 300.5 L 271 303.5 L 272.5 305 L 303 305 L 303 279.5 L 302 277.5 L 303 275 L 335.5 275 L 337 276.5 L 337 304.5 L 335.5 306 L 306.5 306 L 304 308.5 L 304 342 L 337 342 L 339 331.5 L 339 317.5 L 338 314.5 L 341.5 307 L 343.5 306 L 371.5 306 L 374 303.5 L 374 276.5 L 375.5 275 L 458.5 275 L 461 277.5 L 460 278.5 L 460 288.5 L 461 289.5 L 461 300.5 L 460 303.5 L 461.5 305 L 519.5 305 L 522 306 L 524 317.5 L 524 328.5 Q 521.8 329.8 523 334.5 L 524 337.5 L 523 340.5 L 524 343 L 522 342.5 L 522 309.5 L 520.5 308 L 479.5 307 L 474.5 306 L 472.5 306 Q 464.3 304.9 461 307 L 462 310.5 L 462 341.5 L 459.5 344 L 427.5 344 L 426 345.5 L 426 361.5 L 428 369.5 L 427 374.5 L 424.5 378 L 341.5 378 L 338 377 L 338 346.5 L 337 344 L 304.5 344 L 302 341.5 L 302 314.5 L 303 311.5 L 300.5 306 L 270.5 306 L 269 304.5 L 269 273 Z M 376 308 L 373 311 L 373 343 L 343 343 L 340 347 L 340 375 L 342 376 L 425 376 L 425 345 L 424 343 L 410 343 L 407 337 L 407 323 L 406 322 L 407 317 L 406 311 L 405 309 L 376 308 Z " /><path fill="rgb(147,51,234)" stroke="rgb(147,51,234)" stroke-width="1" opacity="1" d="M 636.5 274 L 647.5 274 L 648 275.5 L 649 276.5 L 649 337.5 L 648 340 L 590.5 340 L 588 339 L 588 307.5 L 586.5 306 L 563.5 306 Q 562.3 303.8 557.5 305 L 554 301.5 L 553 299.5 L 553 276.5 L 554.5 275 L 635.5 275 L 636.5 274 Z " /><path fill="rgb(147,51,234)" stroke="rgb(147,51,234)" stroke-width="1" opacity="1" d="M 3153.5 303 L 3192.5 303 L 3193.5 304 L 3201.5 304 L 3218.5 307 L 3238.5 313 Q 3269.3 325.3 3289 348.5 Q 3307 369.5 3317 398.5 L 3323 420.5 L 3323 425.5 L 3326 437.5 L 3327 453 L 3217 458 L 3216 435.5 L 3213 421.5 Q 3209.7 409.3 3201.5 402 L 3187.5 393 Q 3180.4 390.6 3169.5 392 Q 3155.1 395.1 3148 405.5 L 3140 419.5 L 3134 439.5 L 3132 460.5 L 3131 461.5 L 3130 498.5 L 3131 499.5 L 3132 529.5 L 3137 553.5 Q 3141.6 567.9 3152.5 576 Q 3158.9 581.1 3168.5 583 L 3183.5 583 Q 3196.7 580.2 3204 571.5 Q 3218.3 554.4 3219 525 L 3327 531 Q 3320.6 601.9 3278.5 638 Q 3256.6 657.1 3225.5 667 L 3204.5 672 L 3184.5 673 L 3183.5 674 L 3162.5 674 L 3161.5 673 L 3150.5 673 L 3149.5 672 L 3137.5 671 L 3121.5 667 L 3100.5 659 Q 3070.4 644.1 3050 619.5 Q 3028.5 594 3018 557.5 L 3014 540.5 L 3012 519.5 L 3011 518.5 L 3010 477.5 L 3011 476.5 L 3012 454.5 L 3016 431.5 L 3026 399.5 Q 3040.6 364.1 3066.5 340 Q 3083.7 323.7 3107.5 314 L 3133.5 306 L 3152.5 304 L 3153.5 303 Z " /><path fill="rgb(147,51,234)" stroke="rgb(147,51,234)" stroke-width="1" opacity="1" d="M 824 308 L 973.5 308 L 974 311.5 L 1020.5 494 L 1065 308 L 1216 308 L 1216 669 L 1106 669 L 1106 518.5 L 1105 515.5 L 1104.5 421 L 1086 502.5 L 1086 506.5 L 1079 533.5 L 1079 537.5 L 1077 542.5 L 1077 546.5 L 1075 551.5 L 1075 555.5 L 1073 560.5 L 1073 564.5 L 1071 569.5 L 1071 573.5 L 1069 578.5 L 1069 582.5 L 1067 587.5 L 1067 591.5 L 1065 596.5 L 1065 600.5 L 1063 605.5 L 1063 609.5 L 1061 614.5 L 1061 618.5 L 1059 623.5 L 1059 627.5 L 1057 632.5 L 1057 636.5 L 1055 641.5 L 1055 645.5 L 1053 650.5 L 1053 654.5 L 1050 663.5 L 1050 667.5 L 1048.5 669 L 973.5 669 L 973 665.5 L 915.5 420 L 915 669 L 824.5 669 L 824 668.5 L 824 308 Z " /><path fill="rgb(147,51,234)" stroke="rgb(147,51,234)" stroke-width="1" opacity="1" d="M 1267 308 L 1541.5 308 L 1542 308.5 L 1542 398 L 1383.5 398 L 1383 398.5 L 1383 440 L 1511 440 L 1511 527 L 1383 527 L 1383 575 L 1542 575 L 1542 669 L 1267 669 L 1267 308 Z " /><path fill="rgb(147,51,234)" stroke="rgb(147,51,234)" stroke-width="1" opacity="1" d="M 1574 308 L 1723.5 308 L 1724 309.5 L 1770 491.5 L 1771.5 493 L 1816 308 L 1966 308 L 1966 669 L 1856 669 L 1856 419.5 L 1855 419.5 L 1855 423.5 L 1844 468.5 L 1844 472.5 L 1842 477.5 L 1842 481.5 L 1840 486.5 L 1840 490.5 L 1838 495.5 L 1838 499.5 L 1836 504.5 L 1836 508.5 L 1834 513.5 L 1834 517.5 L 1832 522.5 L 1832 526.5 L 1830 531.5 L 1830 535.5 L 1828 540.5 L 1828 544.5 L 1826 549.5 L 1826 553.5 L 1800 669 L 1724.5 669 L 1724 667.5 L 1665.5 418 L 1665 669 L 1574.5 669 L 1574 668.5 L 1574 308 Z " /><path fill="rgb(147,51,234)" stroke="rgb(147,51,234)" stroke-width="1" opacity="1" d="M 2018 308 L 2291.5 308 L 2292 308.5 L 2292 398 L 2134.5 398 L 2133 399.5 L 2133 439.5 L 2133.5 440 L 2262 440 L 2262 527 L 2133 527 L 2133 575 L 2292 575 L 2292 669 L 2018 669 L 2018 308 Z " /><path fill="rgb(147,51,234)" stroke="rgb(147,51,234)" stroke-width="1" opacity="1" d="M 2325 308 L 2481.5 308 L 2482.5 309 L 2494.5 309 L 2495.5 310 L 2508.5 311 Q 2568.5 322 2601 360.5 Q 2625.9 388.6 2639 428.5 L 2646 461.5 L 2646 470.5 L 2647 471.5 L 2647 502.5 L 2646 503.5 L 2646 514.5 L 2642 537.5 L 2630 572.5 Q 2615.1 604.1 2590.5 626 Q 2571.4 643.9 2545.5 655 L 2525.5 662 L 2501.5 667 L 2473.5 668 L 2472.5 669 L 2325 669 L 2325 308 Z M 2443 397 L 2443 578 L 2474 578 Q 2486 576 2494 569 Q 2510 556 2518 534 L 2524 507 L 2524 488 L 2525 487 L 2524 485 L 2523 462 L 2519 445 Q 2514 429 2505 417 Q 2495 403 2478 398 L 2473 397 L 2443 397 Z " /><path fill="rgb(147,51,234)" stroke="rgb(147,51,234)" stroke-width="1" opacity="1" d="M 2679 308 L 2799 308 L 2799 549.5 L 2801 559.5 L 2805 568.5 L 2812.5 576 L 2824.5 581 L 2846.5 582 L 2856.5 580 L 2867.5 575 L 2877 566.5 L 2881 558.5 L 2882 545.5 L 2883 544.5 L 2883 308 L 2978 308 L 2978 547.5 L 2977 548.5 L 2977 565.5 L 2976 566.5 L 2975 579.5 L 2968 603.5 Q 2958.5 626.5 2940.5 641 L 2915.5 657 L 2888.5 667 L 2856.5 673 L 2817.5 674 L 2816.5 673 L 2803.5 673 L 2802.5 672 L 2782.5 670 L 2756.5 663 L 2725.5 648 Q 2712.6 639.9 2703 628.5 Q 2693.6 617.4 2688 602.5 L 2684 590.5 L 2680 567.5 L 2680 365.5 L 2679 364.5 L 2679 308 Z " /><path fill="rgb(147,51,234)" stroke="rgb(147,51,234)" stroke-width="1" opacity="1" d="M 3357 308 L 3469 308 L 3469 452.5 L 3470 452.5 L 3558.5 308 L 3662 308.5 L 3574 442.5 L 3684 668.5 L 3558.5 669 L 3499.5 536 L 3469 583.5 L 3469 669 L 3357.5 669 L 3357 668.5 L 3357 308 Z " /></svg>