<svg width="166" height="29" viewBox="0 0 166 29" fill="none" xmlns="http://www.w3.org/2000/svg">
<path d="M10.8369 27.84H0.436875V0.959999H14.9329C25.4609 0.959999 29.8769 5.6 29.8769 14.4C29.8769 23.2 25.4609 27.84 14.9329 27.84H12.1169L11.1569 19.36H13.1409C17.7809 19.36 19.6369 17.6 19.6369 14.24C19.6369 10.88 17.7809 9.12 13.1409 9.12H10.8369V27.84ZM53.0831 7.04V27.84H44.2831V7.04H53.0831ZM30.8431 20.736V7.04H39.6431V18.784C39.6431 19.872 39.9311 20.224 40.7951 20.224C41.3711 20.224 42.0751 19.968 43.3231 19.296L43.9631 26.336C42.3311 27.552 39.4191 28.48 37.1791 28.48C32.6031 28.48 30.8431 26.208 30.8431 20.736ZM66.5344 28.48C58.7584 28.48 54.0544 23.84 54.0544 17.44C54.0544 11.04 58.7584 6.4 66.5344 6.4C73.3504 6.4 77.5104 9.984 78.5024 15.168L70.0224 16.864C69.7984 15.36 68.5824 14.08 66.5344 14.08C64.2624 14.08 63.0144 15.68 63.0144 17.408C63.0144 19.168 64.2624 20.8 66.5344 20.8C68.5824 20.8 69.7984 19.488 70.0224 17.952L78.5024 19.648C77.5424 24.864 73.3824 28.48 66.5344 28.48ZM79.6556 27.84V0.959999H88.4556V14.016L93.4156 7.04H103.496L95.4956 17.504L104.136 27.84H93.7356L88.4556 21.248V27.84H79.6556ZM120.461 28.48C110.957 28.48 104.781 23.136 104.461 15.008H115.693C115.917 17.088 117.613 18.88 120.461 18.88C123.501 18.88 125.261 16.768 125.261 14.368C125.261 11.968 123.533 9.92 120.461 9.92C117.581 9.92 115.725 11.744 115.693 14.688L104.461 13.728C104.813 5.632 110.989 0.32 120.461 0.32C130.189 0.32 136.461 5.92 136.461 14.4C136.461 22.88 130.189 28.48 120.461 28.48ZM137.406 27.84V0.959999H148.606L155.646 13.92V0.959999H165.566V27.84H154.366L147.326 14.88V27.84H137.406Z" fill="#9333EA"/>
</svg>
